SplineFontDB: 1.0
FontName: Kinnari-Oblique
FullName: Kinnari Oblique
FamilyName: Kinnari
Weight: Medium
Copyright: KinnariItalic by Db Type : Fontographer 3.5
Version: 001.000
ItalicAngle: -12
UnderlinePosition: -70
UnderlineWidth: 25
Ascent: 800
Descent: 200
NeedsXUIDChange: 1
FSType: 0
PfmFamily: 17
TTFWeight: 500
TTFWidth: 5
Panose: 0 0 0 0 0 0 0 0 0 0
LineGap: 90
VLineGap: 0
OS2WinAscent: 0
OS2WinAOffset: 1
OS2WinDescent: 0
OS2WinDOffset: 1
ScriptLang: 5
 1 DFLT 1 dflt 
 1 thai 4 KUY  PAL  THA  dflt 
 1 latn 1 dflt 
 1 thai 1 dflt 
 1 thai 1 PAL  
ContextSub: glyph 0 4 ' RQD' 0 0 0 1
 String: 15 uni0E0D uni0E10
 BString: 0 
 FString: 0 
 1
  SeqLookup: 0 'nds0'
EndFPST
ChainSub: coverage 0 1 'ccmp' 0 0 0 1
 2 0 0
  Coverage: 19 uni0E4B uni0E4B.low
  Coverage: 7 uni0E4D
 2
  SeqLookup: 0 'amni'
  SeqLookup: 1 'G006'
EndFPST
ChainSub: coverage 0 1 'ccmp' 0 0 0 1
 2 0 0
  Coverage: 19 uni0E4A uni0E4A.low
  Coverage: 7 uni0E4D
 2
  SeqLookup: 0 'amni'
  SeqLookup: 1 'G005'
EndFPST
ChainSub: coverage 0 1 'ccmp' 0 0 0 1
 2 0 0
  Coverage: 19 uni0E49 uni0E49.low
  Coverage: 7 uni0E4D
 2
  SeqLookup: 0 'amni'
  SeqLookup: 1 'G004'
EndFPST
ChainSub: coverage 0 1 'ccmp' 0 0 0 1
 2 0 0
  Coverage: 19 uni0E48 uni0E48.low
  Coverage: 7 uni0E4D
 2
  SeqLookup: 0 'amni'
  SeqLookup: 1 'G003'
EndFPST
ChainSub: coverage 0 1 'ccmp' 0 0 0 1
 1 0 1
  Coverage: 15 uni0E0D uni0E10
  FCoverage: 23 uni0E38 uni0E39 uni0E3A
 1
  SeqLookup: 0 'ndsc'
EndFPST
ChainSub: coverage 0 1 'ccmp' 0 0 0 1
 1 2 0
  Coverage: 39 uni0E48 uni0E49 uni0E4A uni0E4B uni0E4C
  BCoverage: 23 uni0E38 uni0E39 uni0E3A

StartChar: .notdef
Encoding: 0 0 0
Width: 250
Flags: HW
HStem: 0 15<15 250> 370 15<0 235>
VStem: 0 15<0 370> 235 15<15 385>
Fore
94 370 m 1
 18 15 l 1
 238 15 l 1
 314 370 l 1
 94 370 l 1
250 0 m 1
 0 0 l 1
 82 385 l 1
 332 385 l 1
 250 0 l 1
EndSplineSet
EndChar
StartChar: exclam
Encoding: 33 33 2
Width: 217
Flags: HW
HStem: -9 77 419 21
Fore
247 388 m 0
 247 388 l 0
 244 377 240 366 236 356 c 2
 144 115 l 1
 135 115 l 1
 171 356 l 1
 174 366 175 377 178 388 c 0
 184 409 199 440 227 440 c 0
 257 440 253 409 247 388 c 0
153 27 m 0
 148 6 126 -9 106 -9 c 0
 88 -9 73 7 78 27 c 0
 84 48 105 66 127 66 c 0
 148 66 159 48 153 27 c 0
EndSplineSet
EndChar
StartChar: quotedbl
Encoding: 34 34 3
Width: 265
Flags: HW
HStem: 424 21
Fore
331 417 m 0
 275 289 l 1
 262 289 l 1
 275 417 l 1
 276 431 295 445 310 445 c 0
 326 445 337 431 331 417 c 0
214 417 m 1
 157 289 l 1
 144 289 l 1
 158 417 l 1
 158 431 177 445 193 445 c 0
 208 445 219 431 214 417 c 1
EndSplineSet
EndChar
StartChar: numbersign
Encoding: 35 35 4
Width: 325
Flags: HW
HStem: 0 21<51 89 51 51 177 215 177 177> 141 36 263 36<100 162 215 286 339 392> 410 21
Fore
392 263 m 1
 324 263 l 1
 288 176 l 1
 353 176 l 1
 344 141 l 1
 273 141 l 1
 215 0 l 1
 177 0 l 1
 235 141 l 1
 148 141 l 1
 89 0 l 1
 51 0 l 1
 110 141 l 1
 41 141 l 1
 50 176 l 1
 125 176 l 1
 162 263 l 1
 90 263 l 1
 100 299 l 1
 177 299 l 1
 232 431 l 1
 270 431 l 1
 215 299 l 1
 301 299 l 1
 356 431 l 1
 393 431 l 1
 339 299 l 1
 402 299 l 1
 392 263 l 1
286 263 m 1
 200 263 l 1
 163 176 l 1
 250 176 l 1
 286 263 l 1
EndSplineSet
EndChar
StartChar: dollar
Encoding: 36 36 5
Width: 325
Flags: HW
HStem: -3 21 414 21<250 261 283 283>
Fore
328 116 m 0
 328 116 l 0
 308 42 240 5 172 0 c 1
 157 -57 l 1
 135 -57 l 1
 150 0 l 1
 107 0 68 11 38 33 c 1
 61 118 l 1
 71 118 l 1
 64 57 91 19 155 18 c 1
 204 202 l 1
 162 230 105 265 123 331 c 0
 140 397 206 429 265 431 c 1
 277 473 l 1
 299 473 l 1
 287 431 l 1
 324 430 360 420 382 397 c 1
 363 325 l 1
 354 325 l 1
 359 375 333 411 283 414 c 1
 240 254 l 1
 289 223 349 193 328 116 c 0
221 265 m 0
 261 414 l 0
 239 414 187 388 176 347 c 0
 164 304 197 287 221 265 c 0
273 99 m 0
 285 145 254 171 223 191 c 1
 177 18 l 1
 223 24 260 53 273 99 c 0
EndSplineSet
EndChar
StartChar: percent
Encoding: 37 37 6
Width: 542
Flags: HW
HStem: -9 21<129 160 129 129 339.5 401> 187 21<142 195.5> 210 21<170 186> 410 21
Fore
530 440 m 1
 160 -9 l 1
 129 -9 l 1
 464 397 l 1
 421 381 372 376 348 386 c 1
 346 376 347 362 344 351 c 0
 320 263 224 187 167 187 c 0
 117 187 99 220 114 276 c 0
 133 346 222 431 295 431 c 0
 317 431 329 425 342 410 c 0
 355 397 369 395 390 395 c 0
 429 395 470 412 499 440 c 1
 530 440 l 1
545 161 m 0
 545 161 l 0
 518 59 429 -9 373 -9 c 0
 306 -9 300 31 313 80 c 0
 332 150 422 232 495 232 c 0
 539 232 554 195 545 161 c 0
329 360 m 0
 329 360 l 0
 332 371 332 380 332 390 c 1
 309 397 304 412 293 412 c 0
 269 412 182 347 158 258 c 0
 151 230 154 210 186 210 c 1
 251 216 313 297 329 360 c 0
527 157 m 0
 534 183 527 211 497 211 c 0
 462 211 428 175 406 146 c 0
 351 72 333 11 385 11 c 0
 446 11 513 105 527 157 c 0
EndSplineSet
EndChar
StartChar: ampersand
Encoding: 38 38 7
Width: 506
Flags: HW
HStem: -9 36 264 13 419 21<326.5 360.5>
Fore
505 65 m 1
 505 65 l 0
 462 17 432 -9 388 -9 c 0
 343 -9 314 20 293 51 c 1
 247 16 192 -9 141 -9 c 0
 68 -9 36 28 53 94 c 0
 73 168 165 221 220 245 c 1
 217 275 214 305 222 336 c 0
 237 393 291 440 349 440 c 0
 396 440 429 412 416 362 c 0
 400 304 338 270 286 250 c 1
 297 203 313 158 335 116 c 1
 365 143 417 197 426 233 c 0
 432 252 424 263 393 265 c 1
 396 277 l 1
 536 277 l 1
 533 265 l 1
 491 260 476 243 449 210 c 0
 414 167 362 113 347 96 c 1
 365 66 387 38 429 38 c 0
 455 38 478 52 497 72 c 1
 505 65 l 1
383 364 m 0
 383 364 l 0
 390 393 375 419 346 419 c 0
 307 419 287 390 279 357 c 0
 272 332 277 293 282 271 c 1
 322 288 371 321 383 364 c 0
281 68 m 1
 255 115 238 169 224 223 c 1
 173 196 132 167 117 112 c 0
 105 68 134 26 178 26 c 0
 205 26 248 44 281 68 c 1
EndSplineSet
EndChar
StartChar: quotesingle
Encoding: 39 39 8
Width: 117
Flags: HW
HStem: 424 21
Fore
199 417 m 1
 142 289 l 1
 129 289 l 1
 143 417 l 1
 143 431 162 445 178 445 c 0
 193 445 204 431 199 417 c 1
EndSplineSet
EndChar
StartChar: parenleft
Encoding: 40 40 9
Width: 217
Flags: HW
HStem: 419 21
Fore
170 -105 m 1
 159 -115 l 1
 90 -59 40 31 77 169 c 0
 108 282 191 377 310 440 c 1
 313 429 l 1
 210 369 161 276 134 175 c 0
 105 68 93 -27 170 -105 c 1
EndSplineSet
EndChar
StartChar: parenright
Encoding: 41 41 10
Width: 217
Flags: HW
HStem: 419 21
Fore
225 151 m 0
 195 39 104 -59 -6 -115 c 1
 -9 -105 l 1
 95 -44 143 48 170 149 c 0
 199 258 212 362 134 429 c 1
 145 440 l 1
 167 427 274 334 225 151 c 0
EndSplineSet
EndChar
StartChar: asterisk
Encoding: 42 42 11
Width: 325
Flags: HW
HStem: 423 21
Fore
381 364 m 1
 382 338 350 324 337 327 c 1
 322 328 286 314 254 304 c 1
 281 288 308 278 336 273 c 0
 349 271 355 249 338 234 c 0
 314 214 292 232 291 246 c 0
 289 259 266 280 247 298 c 1
 235 261 234 230 234 202 c 0
 235 190 219 169 200 173 c 0
 176 178 186 210 198 222 c 0
 210 233 224 268 237 298 c 1
 198 278 171 257 146 235 c 0
 134 225 110 225 108 244 c 0
 107 269 139 284 153 281 c 0
 167 279 203 293 233 306 c 1
 207 325 179 334 152 340 c 0
 140 342 135 364 152 379 c 0
 174 399 196 381 197 367 c 0
 199 354 222 333 241 314 c 1
 252 356 253 386 251 414 c 0
 249 426 268 447 287 444 c 0
 311 438 302 406 289 395 c 0
 277 384 265 349 252 314 c 1
 290 329 318 351 343 373 c 1
 356 381 378 382 381 364 c 1
EndSplineSet
EndChar
StartChar: plus
Encoding: 43 43 12
Width: 367
Flags: HW
HStem: 155 42<73 205 257 389>
Fore
389 155 m 1
 246 155 l 1
 207 11 l 1
 166 11 l 1
 205 155 l 1
 62 155 l 1
 73 197 l 1
 216 197 l 1
 254 339 l 1
 295 339 l 1
 257 197 l 1
 400 197 l 1
 389 155 l 1
EndSplineSet
EndChar
StartChar: comma
Encoding: 44 44 13
Width: 163
Flags: HW
Fore
38 38 m 0
 45 65 66 82 94 82 c 0
 135 82 142 44 133 11 c 0
 122 -31 67 -77 23 -95 c 1
 18 -77 l 1
 48 -65 89 -27 95 -4 c 0
 96 0 98 3 94 3 c 0
 89 3 81 -3 68 -2 c 0
 47 -1 32 14 38 38 c 0
EndSplineSet
EndChar
StartChar: hyphen
Encoding: 45 45 14
Width: 217
Flags: HW
HStem: 155 42
Fore
230 155 m 1
 70 155 l 1
 81 196 l 1
 241 196 l 1
 230 155 l 1
EndSplineSet
EndChar
StartChar: period
Encoding: 46 46 15
Width: 163
Flags: HW
HStem: -8 94<92 93>
Fore
45 39 m 0
 52 65 79 86 105 86 c 0
 131 86 146 65 139 39 c 0
 132 13 106 -8 80 -8 c 0
 54 -8 38 13 45 39 c 0
EndSplineSet
EndChar
StartChar: slash
Encoding: 47 47 16
Width: 181
Flags: HW
HStem: 423 21
Fore
316 444 m 1
 14 -70 l 1
 -27 -70 l 1
 275 444 l 1
 316 444 l 1
EndSplineSet
EndChar
StartChar: zero
Encoding: 48 48 17
Width: 350
Flags: HW
HStem: -9 21<122 226> 419 21
Fore
378 213 m 0
 378 213 l 0
 354 124 284 -9 168 -9 c 0
 76 -9 51 90 85 217 c 0
 110 310 179 440 291 440 c 0
 389 440 412 341 378 213 c 0
315 212 m 0
 346 328 352 423 290 423 c 0
 217 423 174 313 145 204 c 0
 119 107 107 9 177 9 c 0
 251 9 288 112 315 212 c 0
EndSplineSet
EndChar
StartChar: one
Encoding: 49 49 18
Width: 350
Flags: HW
HStem: 0 21<92 270 92 92> 419 21
Fore
270 0 m 1
 92 0 l 1
 94 9 l 1
 147 12 159 24 167 52 c 1
 245 344 l 1
 259 395 236 386 185 368 c 1
 187 377 l 1
 327 440 l 1
 223 52 l 1
 215 24 221 12 272 9 c 1
 270 0 l 1
EndSplineSet
EndChar
StartChar: two
Encoding: 50 50 19
Width: 350
Flags: HW
HStem: 0 50<111 250 250 274> 398 42
Fore
348 89 m 1
 288 0 l 1
 35 0 l 1
 37 9 l 1
 178 125 l 2
 233 170 297 233 315 299 c 0
 330 356 304 393 247 393 c 0
 196 393 159 351 132 308 c 1
 119 312 l 1
 151 386 214 440 293 440 c 0
 357 440 395 390 378 326 c 0
 362 265 320 221 244 158 c 2
 111 50 l 1
 250 50 l 2
 298 50 304 52 341 93 c 1
 348 89 l 1
EndSplineSet
EndChar
StartChar: three
Encoding: 51 51 20
Width: 350
Flags: HW
HStem: -9 21<104.5 161.5> 404 36
Fore
332 139 m 0
 306 41 206 -9 117 -9 c 0
 92 -9 42 -7 52 28 c 0
 55 42 68 50 81 50 c 0
 113 50 126 14 165 14 c 0
 219 14 264 57 278 109 c 0
 298 182 268 215 173 215 c 1
 174 224 l 1
 227 239 294 269 311 332 c 0
 322 374 300 401 258 401 c 0
 215 401 179 377 143 333 c 1
 134 336 l 1
 172 401 228 440 290 440 c 0
 358 440 381 404 368 353 c 0
 356 310 321 282 283 262 c 1
 332 239 349 203 332 139 c 0
EndSplineSet
EndChar
StartChar: four
Encoding: 52 52 21
Width: 350
Flags: HW
HStem: 0 21<205 255 205 205> 109 42 419 21
Fore
350 109 m 1
 284 109 l 1
 255 0 l 1
 205 0 l 1
 234 109 l 1
 51 109 l 1
 62 150 l 1
 343 440 l 1
 373 440 l 1
 295 150 l 1
 361 150 l 1
 350 109 l 1
245 150 m 1
 304 371 l 1
 88 150 l 1
 245 150 l 1
EndSplineSet
EndChar
StartChar: five
Encoding: 53 53 22
Width: 350
Flags: HW
HStem: -9 21<102 163> 381 50
Fore
419 443 m 1
 371 379 l 1
 235 379 l 1
 193 324 l 1
 291 307 366 278 332 148 c 0
 306 51 211 -9 115 -9 c 0
 89 -9 39 -7 43 26 c 0
 45 44 61 55 80 55 c 0
 121 55 125 14 160 14 c 0
 216 14 264 65 281 127 c 0
 308 229 217 263 137 268 c 0
 131 269 129 272 131 276 c 1
 243 431 l 1
 371 431 l 2
 391 431 396 431 414 447 c 1
 419 443 l 1
EndSplineSet
EndChar
StartChar: six
Encoding: 54 54 23
Width: 350
Flags: HW
HStem: -9 21<143 225.5> 250 28 423 21
Fore
356 139 m 0
 356 139 l 0
 335 61 267 -9 184 -9 c 0
 102 -9 54 59 86 178 c 0
 123 319 248 420 385 439 c 0
 396 440 407 444 424 444 c 1
 422 432 l 1
 400 427 380 425 355 414 c 0
 290 387 217 337 181 249 c 1
 211 267 241 278 272 278 c 0
 348 278 379 225 356 139 c 0
298 147 m 0
 306 200 299 249 241 249 c 0
 219 249 193 241 172 228 c 0
 170 226 168 224 167 223 c 0
 154 206 147 184 141 161 c 0
 118 74 134 9 198 9 c 0
 247 9 287 70 298 147 c 0
EndSplineSet
EndChar
StartChar: seven
Encoding: 55 55 24
Width: 350
Flags: HW
HStem: -9 21<124 166 124 124> 381 50
Fore
420 421 m 1
 166 -9 l 1
 124 -9 l 1
 358 382 l 1
 224 382 l 2
 176 382 163 370 127 330 c 1
 118 335 l 1
 182 431 l 1
 422 431 l 1
 420 421 l 1
EndSplineSet
EndChar
StartChar: eight
Encoding: 56 56 25
Width: 350
Flags: HW
HStem: -9 21<139 204> 419 21
Fore
330 100 m 0
 330 100 l 0
 311 30 237 -9 171 -9 c 0
 107 -9 58 29 77 99 c 0
 91 154 145 187 192 216 c 1
 162 256 128 277 146 343 c 0
 158 388 216 440 296 440 c 0
 348 440 399 410 383 351 c 0
 368 294 318 265 267 242 c 1
 303 206 347 166 330 100 c 0
338 349 m 0
 338 349 l 0
 349 393 328 423 285 423 c 0
 247 423 209 398 198 358 c 0
 185 311 222 276 251 254 c 1
 291 273 326 307 338 349 c 0
275 82 m 0
 290 139 239 174 205 203 c 1
 203 201 200 200 197 197 c 1
 164 176 136 139 127 106 c 0
 113 51 128 7 185 7 c 0
 228 7 263 39 275 82 c 0
EndSplineSet
EndChar
StartChar: nine
Encoding: 57 57 26
Width: 350
Flags: HW
HStem: 154 28<193.5 209> 419 21
Fore
357 190 m 0
 357 190 l 0
 318 121 241 41 153 8 c 0
 112 -8 70 -15 50 -15 c 1
 51 -2 l 1
 93 5 158 23 217 81 c 0
 249 113 280 152 300 190 c 1
 260 167 225 154 193 154 c 0
 123 154 90 206 113 291 c 0
 127 345 187 440 292 440 c 0
 350 440 385 398 390 346 c 0
 394 299 386 243 357 190 c 0
323 269 m 0
 338 325 352 423 278 423 c 0
 221 423 190 355 178 310 c 0
 163 254 160 182 227 182 c 0
 248 182 289 197 307 215 c 1
 313 232 318 249 323 269 c 0
EndSplineSet
EndChar
StartChar: colon
Encoding: 58 58 27
Width: 181
Flags: HW
HStem: -8 94<101 102> 211 94<160 161>
Fore
113 258 m 0
 113 258 l 0
 120 284 147 305 173 305 c 0
 199 305 214 284 207 258 c 0
 200 232 174 211 148 211 c 0
 122 211 106 232 113 258 c 0
54 39 m 0
 61 65 88 86 114 86 c 0
 140 86 155 65 148 39 c 0
 141 13 115 -8 89 -8 c 0
 63 -8 47 13 54 39 c 0
EndSplineSet
EndChar
StartChar: semicolon
Encoding: 59 59 28
Width: 181
Flags: HW
HStem: 211 94<152 153>
Fore
48 38 m 0
 48 38 l 0
 55 65 76 82 104 82 c 0
 149 82 153 50 144 15 c 0
 130 -39 85 -73 33 -95 c 1
 28 -77 l 1
 58 -65 98 -29 105 -4 c 0
 106 0 108 3 104 3 c 0
 99 3 91 -3 78 -2 c 0
 57 -1 42 14 48 38 c 0
105 258 m 0
 112 284 139 305 165 305 c 0
 191 305 206 284 199 258 c 0
 192 232 166 211 140 211 c 0
 114 211 98 232 105 258 c 0
EndSplineSet
EndChar
StartChar: less
Encoding: 60 60 29
Width: 367
Flags: HW
HStem: 0 21<349 349>
Fore
349 0 m 1
 59 152 l 1
 68 187 l 1
 440 340 l 1
 429 299 l 1
 116 170 l 1
 360 41 l 1
 349 0 l 1
EndSplineSet
EndChar
StartChar: equal
Encoding: 61 61 30
Width: 367
Flags: HW
HStem: 86 42<54 370> 212 42<88 404>
Fore
404 212 m 1
 77 212 l 1
 88 254 l 1
 415 254 l 1
 404 212 l 1
370 86 m 1
 43 86 l 1
 54 128 l 1
 381 128 l 1
 370 86 l 1
EndSplineSet
EndChar
StartChar: greater
Encoding: 62 62 31
Width: 367
Flags: HW
HStem: 0 21<18 18>
Fore
390 152 m 1
 18 0 l 1
 29 41 l 1
 342 170 l 1
 98 299 l 1
 109 340 l 1
 399 187 l 1
 390 152 l 1
EndSplineSet
EndChar
StartChar: question
Encoding: 63 63 32
Width: 289
Flags: HW
HStem: -9 77 419 21
Fore
347 337 m 0
 347 337 l 0
 336 295 302 262 270 231 c 2
 243 206 l 2
 212 176 191 145 175 107 c 1
 164 107 l 1
 191 208 264 251 287 336 c 0
 299 379 287 421 240 421 c 0
 215 421 165 404 167 373 c 1
 169 367 173 362 175 356 c 0
 180 347 182 343 179 332 c 0
 175 316 160 306 143 306 c 0
 120 306 121 331 126 349 c 0
 141 407 206 440 259 440 c 0
 333 440 361 388 347 337 c 0
186 28 m 0
 180 7 157 -9 139 -9 c 0
 120 -9 105 8 111 28 c 0
 116 48 140 66 159 66 c 0
 177 66 191 49 186 28 c 0
EndSplineSet
EndChar
StartChar: at
Encoding: 64 64 33
Width: 599
Flags: HW
HStem: -101 21<228 345> 26 28<438 469> 280 28 418 21
Fore
623 215 m 0
 623 215 l 0
 595 112 502 26 436 26 c 0
 413 26 374 32 374 80 c 1
 344 47 296 27 268 27 c 0
 222 27 196 54 214 120 c 0
 240 215 341 308 415 308 c 0
 449 308 463 284 465 267 c 1
 481 299 l 1
 537 299 l 1
 429 94 l 2
 415 68 428 54 448 54 c 0
 497 54 576 139 596 214 c 0
 628 334 541 414 437 414 c 0
 298 414 171 274 141 162 c 0
 115 64 117 -75 302 -75 c 0
 365 -75 446 -51 492 -15 c 1
 469 -57 l 1
 469 -57 396 -101 294 -101 c 0
 162 -101 29 -25 81 167 c 0
 110 276 245 439 444 439 c 0
 526 439 668 384 623 215 c 0
439 224 m 0
 450 266 435 278 416 278 c 0
 381 278 301 222 273 114 c 0
 261 72 269 55 297 55 c 0
 320 55 355 83 366 96 c 0
 379 111 427 178 439 224 c 0
EndSplineSet
EndChar
StartChar: A
Encoding: 65 65 34
Width: 470
Flags: HW
HStem: 0 13<131 139> 141 21<168 338 168 168> 419 21
Fore
459 0 m 1
 293 0 l 1
 296 13 l 1
 353 15 356 28 346 85 c 1
 338 141 l 1
 168 141 l 1
 152 116 111 64 105 40 c 0
 99 18 120 13 142 13 c 1
 139 0 l 1
 10 0 l 1
 13 13 l 1
 54 16 84 63 128 126 c 2
 344 440 l 1
 357 440 l 1
 417 76 l 1
 422 50 426 11 462 13 c 1
 459 0 l 1
336 167 m 1
 308 346 l 1
 186 167 l 1
 336 167 l 1
EndSplineSet
EndChar
StartChar: B
Encoding: 66 66 35
Width: 434
Flags: HW
HStem: 0 21<13 218 13 13> 217 21 418 13<128 151.5>
Fore
420 119 m 0
 420 119 l 0
 399 41 320 0 218 0 c 2
 13 0 l 1
 16 13 l 1
 69 13 85 33 90 52 c 2
 178 379 l 1
 182 397 178 418 125 418 c 1
 128 431 l 1
 302 431 l 2
 403 431 474 404 452 321 c 0
 437 266 393 238 340 226 c 1
 393 215 436 181 420 119 c 0
384 319 m 0
 384 319 l 0
 398 368 374 395 331 403 c 1
 272 407 251 408 245 386 c 2
 206 238 l 1
 259 238 l 2
 325 238 370 266 384 319 c 0
345 120 m 0
 366 198 293 212 231 212 c 2
 199 212 l 1
 158 59 l 2
 152 36 154 24 201 24 c 0
 269 24 325 44 345 120 c 0
EndSplineSet
EndChar
StartChar: C
Encoding: 67 67 36
Width: 434
Flags: HW
HStem: -9 28 412 28
Fore
433 72 m 1
 381 24 306 -9 243 -9 c 0
 117 -9 41 72 80 215 c 0
 114 344 231 440 362 440 c 0
 451 440 469 386 505 439 c 1
 519 439 l 1
 485 293 l 1
 470 293 l 1
 470 364 436 413 361 413 c 0
 254 413 185 327 153 210 c 0
 129 119 150 20 256 20 c 0
 320 20 369 41 426 85 c 1
 433 72 l 1
EndSplineSet
EndChar
StartChar: D
Encoding: 68 68 37
Width: 470
Flags: HW
HStem: 0 28 410 21
Fore
505 214 m 0
 505 214 l 0
 470 82 360 0 186 0 c 2
 13 0 l 1
 16 13 l 1
 64 13 79 33 84 52 c 2
 172 379 l 1
 176 397 173 418 125 418 c 1
 128 431 l 1
 296 431 l 2
 462 431 544 360 505 214 c 0
434 213 m 0
 468 341 403 406 283 406 c 0
 252 406 246 405 237 373 c 1
 153 59 l 1
 146 35 162 28 175 27 c 0
 307 21 402 93 434 213 c 0
EndSplineSet
EndChar
StartChar: E
Encoding: 69 69 38
Width: 397
Flags: HW
HStem: 0 28 211 28 403 28
Fore
417 110 m 1
 359 0 l 1
 8 0 l 1
 11 13 l 1
 58 13 74 33 79 52 c 2
 167 379 l 1
 171 397 167 418 120 418 c 1
 123 431 l 1
 468 431 l 1
 444 338 l 1
 430 338 l 1
 432 373 418 404 373 404 c 2
 268 404 l 2
 252 404 238 395 234 379 c 1
 196 239 l 1
 287 239 l 2
 331 239 371 250 385 301 c 1
 398 301 l 1
 357 149 l 1
 344 149 l 1
 358 200 324 212 280 212 c 2
 189 212 l 1
 146 52 l 2
 143 41 142 27 155 27 c 2
 241 27 l 2
 293 27 344 28 399 110 c 1
 417 110 l 1
EndSplineSet
EndChar
StartChar: F
Encoding: 70 70 39
Width: 362
Flags: HW
HStem: 0 13<11 34.5 168.5 190> 211 28 403 28
Fore
445 338 m 1
 429 338 l 1
 440 409 399 404 353 404 c 2
 267 404 l 2
 245 404 238 394 234 379 c 2
 196 239 l 1
 281 239 l 2
 325 239 365 250 379 301 c 1
 393 301 l 1
 352 149 l 1
 338 149 l 1
 352 200 318 212 274 212 c 2
 189 212 l 1
 146 52 l 2
 141 33 144 13 193 13 c 1
 190 0 l 1
 8 0 l 1
 11 13 l 1
 58 13 74 33 79 52 c 2
 167 379 l 1
 171 397 167 418 120 418 c 1
 123 431 l 1
 469 431 l 1
 445 338 l 1
EndSplineSet
EndChar
StartChar: G
Encoding: 71 71 40
Width: 470
Flags: HW
HStem: -9 28 219 13<354 378 496 517> 419 21
Fore
517 219 m 1
 475 219 465 198 455 161 c 2
 422 37 l 1
 379 16 300 -9 247 -9 c 0
 136 -9 34 61 75 214 c 0
 110 343 229 440 359 440 c 0
 438 440 476 392 505 440 c 1
 519 440 l 1
 487 302 l 1
 473 302 l 1
 466 371 435 414 358 414 c 0
 250 414 180 323 149 209 c 0
 122 109 153 18 262 18 c 0
 286 18 314 22 339 32 c 0
 360 41 361 45 366 64 c 2
 392 161 l 2
 402 198 405 219 351 219 c 1
 354 232 l 1
 520 232 l 1
 517 219 l 1
EndSplineSet
EndChar
StartChar: H
Encoding: 72 72 41
Width: 470
Flags: HW
HStem: 0 13<16 40 173 194 279 303 436.5 457> 206 28 418 13<126 149 282 306 391 412 545.5 569>
Fore
457 0 m 1
 276 0 l 1
 279 13 l 1
 327 13 343 33 348 52 c 2
 389 207 l 1
 192 207 l 1
 151 52 l 2
 146 33 149 13 197 13 c 1
 194 0 l 1
 13 0 l 1
 16 13 l 1
 64 13 79 33 84 52 c 2
 172 379 l 1
 176 397 173 418 125 418 c 1
 126 431 l 1
 309 431 l 1
 306 418 l 1
 258 418 243 397 239 379 c 1
 200 234 l 1
 397 234 l 1
 436 379 l 1
 440 397 436 418 388 418 c 1
 391 431 l 1
 572 431 l 1
 569 418 l 1
 522 418 506 397 502 379 c 1
 414 52 l 2
 409 33 413 13 460 13 c 1
 457 0 l 1
EndSplineSet
EndChar
StartChar: I
Encoding: 73 73 42
Width: 217
Flags: HW
HStem: 0 13<15 42 182 206> 418 13<127 151 291 318>
Fore
206 0 m 1
 12 0 l 1
 15 13 l 1
 69 13 85 33 90 52 c 2
 178 379 l 1
 182 397 178 418 124 418 c 1
 127 431 l 1
 321 431 l 1
 318 418 l 1
 264 418 248 397 244 379 c 1
 156 52 l 2
 151 33 155 13 209 13 c 1
 206 0 l 1
EndSplineSet
EndChar
StartChar: J
Encoding: 74 74 43
Width: 253
Flags: HW
HStem: -9 21<61.5 101> 418 13<166 190 330 357>
Fore
357 418 m 1
 303 418 287 397 283 379 c 1
 216 129 l 2
 191 37 131 -9 71 -9 c 0
 52 -9 14 -2 17 29 c 1
 17 39 l 1
 21 54 39 70 57 70 c 0
 76 70 85 56 81 50 c 0
 74 37 78 16 92 16 c 0
 111 16 128 47 135 74 c 2
 217 379 l 1
 221 397 217 418 163 418 c 1
 166 431 l 1
 360 431 l 1
 357 418 l 1
EndSplineSet
EndChar
StartChar: K
Encoding: 75 75 44
Width: 470
Flags: HW
HStem: 0 13<16 40.5 175.5 197 266 290 441 461> 418 13<128 149.5 285 310 518 542>
Fore
461 0 m 1
 263 0 l 1
 266 13 l 1
 314 13 321 24 315 42 c 0
 306 73 275 119 257 144 c 2
 210 206 l 1
 190 193 l 1
 152 52 l 2
 147 33 151 13 200 13 c 1
 197 0 l 1
 13 0 l 1
 16 13 l 1
 65 13 81 33 86 52 c 2
 174 379 l 1
 178 397 174 418 125 418 c 1
 128 431 l 1
 313 431 l 1
 310 418 l 1
 260 418 244 397 240 379 c 1
 199 226 l 1
 233 252 402 366 410 396 c 0
 417 420 388 417 372 418 c 1
 375 431 l 1
 545 431 l 1
 542 418 l 1
 494 418 462 393 422 362 c 2
 274 245 l 1
 347 137 l 1
 378 89 l 2
 402 51 418 13 464 13 c 1
 461 0 l 1
EndSplineSet
EndChar
StartChar: L
Encoding: 76 76 45
Width: 397
Flags: HW
HStem: 0 28 418 13<123 143.5 277 301>
Fore
419 113 m 1
 358 0 l 1
 8 0 l 1
 11 13 l 1
 58 13 74 33 79 52 c 2
 167 379 l 1
 171 397 167 418 120 418 c 1
 123 431 l 1
 304 431 l 1
 301 418 l 1
 253 418 238 397 234 379 c 1
 146 52 l 2
 141 34 163 27 204 27 c 0
 286 27 343 24 403 113 c 1
 419 113 l 1
EndSplineSet
EndChar
StartChar: M
Encoding: 77 77 46
Width: 578
Flags: HW
HStem: 0 13<16 42.5 143.5 167 389 412.5 545.5 566> 418 13<129 152 654 678>
Fore
566 0 m 1
 386 0 l 1
 389 13 l 1
 436 13 452 33 457 52 c 2
 542 370 l 1
 276 0 l 1
 267 0 l 1
 199 355 l 1
 118 52 l 2
 113 33 117 13 170 13 c 1
 167 0 l 1
 13 0 l 1
 16 13 l 1
 69 13 85 33 90 52 c 2
 178 379 l 1
 182 397 178 418 126 418 c 1
 129 431 l 1
 258 431 l 1
 320 102 l 1
 551 431 l 1
 681 431 l 1
 678 418 l 1
 630 418 615 397 611 379 c 1
 523 52 l 2
 518 33 522 13 569 13 c 1
 566 0 l 1
EndSplineSet
EndChar
StartChar: N
Encoding: 78 78 47
Width: 470
Flags: HW
HStem: 0 13<11 37.5 139 163> 418 13<123 136 421 445 546.5 573>
Fore
573 418 m 1
 520 418 504 397 500 379 c 1
 396 -9 l 1
 386 -9 l 1
 194 349 l 1
 114 52 l 2
 109 33 112 13 166 13 c 1
 163 0 l 1
 8 0 l 1
 11 13 l 1
 64 13 80 33 85 52 c 2
 173 382 l 1
 170 389 l 1
 156 412 152 418 120 418 c 1
 123 431 l 1
 234 431 l 1
 401 118 l 1
 471 379 l 1
 475 397 472 418 418 418 c 1
 421 431 l 1
 576 431 l 1
 573 418 l 1
EndSplineSet
EndChar
StartChar: O
Encoding: 79 79 48
Width: 470
Flags: HW
HStem: -9 21<175.5 298> 419 21
Fore
505 215 m 0
 505 215 l 0
 471 90 363 -9 233 -9 c 0
 118 -9 43 78 80 215 c 0
 114 345 226 442 353 440 c 1
 466 445 542 354 505 215 c 0
432 215 m 1
 459 317 448 418 346 416 c 1
 248 410 187 340 154 215 c 0
 118 81 160 9 239 15 c 0
 357 24 416 146 432 215 c 1
EndSplineSet
EndChar
StartChar: P
Encoding: 80 80 49
Width: 362
Flags: HW
HStem: 0 13<10 34 167.5 188> 188 21<228 279> 410 21
Fore
438 317 m 0
 438 317 l 0
 412 221 321 188 237 188 c 0
 219 188 201 189 182 191 c 1
 145 52 l 2
 140 33 144 13 191 13 c 1
 188 0 l 1
 7 0 l 1
 10 13 l 1
 58 13 74 33 79 52 c 2
 167 379 l 1
 171 397 167 418 123 418 c 1
 126 431 l 1
 289 431 l 2
 390 431 459 394 438 317 c 0
366 312 m 0
 385 386 331 406 268 406 c 0
 241 406 239 403 232 377 c 2
 189 215 l 1
 199 215 209 213 220 213 c 0
 290 213 346 237 366 312 c 0
EndSplineSet
EndChar
StartChar: Q
Encoding: 81 81 50
Width: 470
Flags: HW
HStem: -115 13 -5 21 419 21
Fore
425 -115 m 1
 425 -115 l 0
 312 -115 239 -96 199 -42 c 0
 190 -31 182 -13 173 -5 c 1
 168 2 159 5 154 6 c 0
 75 29 56 126 80 215 c 0
 114 342 220 440 353 440 c 0
 484 440 538 341 505 215 c 0
 471 90 361 -2 275 -5 c 1
 306 -65 351 -102 428 -104 c 1
 425 -115 l 1
432 215 m 0
 466 344 430 416 346 416 c 0
 257 415 188 345 154 215 c 0
 119 87 154 15 239 15 c 0
 329 15 400 96 432 215 c 0
EndSplineSet
EndChar
StartChar: R
Encoding: 82 82 51
Width: 434
Flags: HW
HStem: 0 13<11 34 166 187> 410 21
Fore
425 0 m 1
 321 0 l 1
 220 200 l 1
 183 199 l 1
 144 52 l 2
 139 33 142 13 190 13 c 1
 187 0 l 1
 8 0 l 1
 11 13 l 1
 57 13 72 33 77 52 c 2
 165 379 l 1
 169 397 166 418 120 418 c 1
 123 431 l 1
 295 431 l 2
 403 431 458 393 438 317 c 0
 419 248 354 216 291 208 c 1
 377 49 l 1
 389 28 400 15 428 13 c 1
 425 0 l 1
367 316 m 0
 384 380 345 406 287 406 c 0
 244 406 239 406 230 375 c 1
 190 223 l 1
 285 226 348 246 367 316 c 0
EndSplineSet
EndChar
StartChar: S
Encoding: 83 83 52
Width: 362
Flags: HW
HStem: -9 21<45 59 45 45 59 180> 412 28
Fore
348 110 m 0
 333 52 269 -9 180 -9 c 0
 113 -9 78 39 59 -9 c 1
 45 -9 l 1
 63 131 l 1
 77 131 l 1
 82 70 112 16 181 16 c 0
 234 16 281 61 280 112 c 0
 278 203 101 207 135 331 c 0
 152 395 216 440 279 440 c 0
 348 440 367 392 395 440 c 1
 409 440 l 1
 386 301 l 1
 370 301 l 1
 371 362 342 413 282 413 c 0
 243 413 207 392 196 351 c 0
 186 313 220 286 243 269 c 0
 318 216 369 188 348 110 c 0
EndSplineSet
EndChar
StartChar: T
Encoding: 84 84 53
Width: 397
Flags: HW
HStem: 0 13<111 135 268 289> 403 28<250 273 340 386 340 340>
Fore
472 320 m 1
 457 320 l 1
 465 405 432 403 386 403 c 2
 340 403 l 1
 246 52 l 2
 241 33 244 13 292 13 c 1
 289 0 l 1
 108 0 l 1
 111 13 l 1
 159 13 174 33 179 52 c 2
 273 403 l 1
 227 403 177 406 151 379 c 1
 132 362 123 340 114 320 c 1
 98 320 l 1
 131 431 l 1
 497 431 l 1
 472 320 l 1
EndSplineSet
EndChar
StartChar: U
Encoding: 85 85 54
Width: 470
Flags: HW
HStem: -9 28 418 13<126 146.5 279.5 303 423 445.5 544.5 570>
Fore
570 418 m 1
 519 418 503 397 499 379 c 1
 444 174 l 2
 424 100 403 43 319 8 c 0
 296 -2 260 -9 232 -9 c 0
 114 -9 80 46 112 165 c 2
 170 379 l 1
 174 397 170 418 123 418 c 1
 126 431 l 1
 306 431 l 1
 303 418 l 1
 256 418 240 397 236 379 c 1
 177 160 l 2
 150 59 170 20 252 20 c 0
 373 20 399 112 416 174 c 1
 471 379 l 1
 475 397 471 418 420 418 c 1
 423 431 l 1
 573 431 l 1
 570 418 l 1
EndSplineSet
EndChar
StartChar: V
Encoding: 86 86 55
Width: 470
Flags: HW
HStem: -9 21<241 249 241 241> 418 13<128 144 277.5 298 438 444 552.5 568>
Fore
568 418 m 1
 537 418 518 397 501 371 c 0
 423 256 310 85 249 -9 c 1
 241 -9 l 1
 177 343 l 2
 170 382 163 418 125 418 c 1
 128 431 l 1
 301 431 l 1
 298 418 l 1
 257 418 247 410 243 394 c 0
 239 380 249 330 252 317 c 1
 290 105 l 1
 444 336 l 2
 454 350 470 375 474 390 c 0
 481 415 453 418 435 418 c 1
 438 431 l 1
 571 431 l 1
 568 418 l 1
EndSplineSet
EndChar
StartChar: W
Encoding: 87 87 56
Width: 614
Flags: HW
HStem: -9 21<197 206 197 197 411 419 411 411> 418 13<268 268 268 277 321 331 483 492 721 721>
Fore
721 418 m 1
 705 417 689 412 675 400 c 1
 667 391 660 381 654 371 c 2
 419 -9 l 1
 411 -9 l 1
 380 268 l 1
 206 -9 l 1
 197 -9 l 1
 172 273 l 1
 169 305 164 365 154 393 c 0
 149 410 136 416 118 418 c 1
 121 431 l 1
 280 431 l 1
 277 418 l 1
 268 418 l 2
 246 415 234 415 228 392 c 0
 226 386 229 366 229 360 c 1
 257 123 l 1
 375 306 l 1
 372 334 370 362 364 388 c 0
 359 412 344 418 318 418 c 1
 321 431 l 1
 495 431 l 1
 492 418 l 1
 474 418 442 418 437 398 c 0
 434 388 435 375 435 371 c 1
 465 121 l 1
 601 334 l 2
 621 366 632 393 629 403 c 0
 624 417 606 417 592 418 c 1
 595 431 l 1
 724 431 l 1
 721 418 l 1
EndSplineSet
EndChar
StartChar: X
Encoding: 88 88 57
Width: 470
Flags: HW
HStem: 0 13<11 29.5 142.5 159 269 292 447 459> 418 13<303.5 324 414 418 542.5 566>
Fore
459 0 m 1
 266 0 l 1
 269 13 l 1
 315 13 328 22 325 45 c 0
 324 60 312 89 306 103 c 2
 271 187 l 1
 175 97 l 2
 159 83 139 65 126 49 c 0
 112 31 123 13 162 13 c 1
 159 0 l 1
 8 0 l 1
 11 13 l 1
 48 13 86 50 132 93 c 2
 261 212 l 1
 221 310 l 1
 188 389 174 416 128 418 c 1
 131 431 l 1
 327 431 l 1
 324 418 l 1
 283 418 274 413 270 398 c 0
 264 378 294 311 302 295 c 1
 316 263 l 1
 407 347 l 2
 419 358 447 380 451 397 c 0
 457 418 425 418 411 418 c 1
 414 431 l 1
 569 431 l 1
 566 418 l 1
 519 418 471 375 446 351 c 2
 326 239 l 1
 400 67 l 1
 419 26 432 13 462 13 c 1
 459 0 l 1
EndSplineSet
EndChar
StartChar: Y
Encoding: 89 89 58
Width: 470
Flags: HW
HStem: 0 13<142 170 312 337> 418 13<291.5 309 430 444 569 569>
Fore
569 418 m 1
 522 412 480 367 454 338 c 2
 324 197 l 1
 285 52 l 2
 280 33 284 13 340 13 c 1
 337 0 l 1
 139 0 l 1
 142 13 l 1
 198 13 214 33 219 52 c 2
 256 191 l 1
 207 310 l 1
 180 374 173 417 127 418 c 1
 130 431 l 1
 312 431 l 1
 309 418 l 1
 274 418 261 414 257 400 c 0
 253 386 258 375 264 364 c 1
 319 226 l 1
 445 366 l 2
 455 378 469 392 467 406 c 0
 465 414 461 418 427 418 c 1
 430 431 l 1
 572 431 l 1
 569 418 l 1
EndSplineSet
EndChar
StartChar: Z
Encoding: 90 90 59
Width: 397
Flags: HW
HStem: 0 21<5 373 5 5> 410 21
Fore
419 115 m 1
 373 0 l 1
 5 0 l 1
 7 8 l 1
 399 406 l 1
 263 406 l 2
 196 406 155 394 122 319 c 1
 105 319 l 1
 148 431 l 1
 492 431 l 1
 490 423 l 1
 101 25 l 1
 261 25 l 2
 332 25 366 43 404 115 c 1
 419 115 l 1
EndSplineSet
EndChar
StartChar: bracketleft
Encoding: 91 91 60
Width: 217
Flags: HW
HStem: -102 21<30 168 30 30> 410 21
Fore
168 -102 m 1
 30 -102 l 1
 172 431 l 1
 310 431 l 1
 306 414 l 1
 255 414 l 2
 225 414 216 407 208 378 c 2
 95 -44 l 2
 86 -78 92 -85 123 -85 c 2
 172 -85 l 1
 168 -102 l 1
EndSplineSet
EndChar
StartChar: backslash
Encoding: 92 92 61
Width: 181
Flags: HW
HStem: 0 21<188 235 188 188> 423 21
Fore
235 0 m 1
 188 0 l 1
 65 444 l 1
 112 444 l 1
 235 0 l 1
EndSplineSet
EndChar
StartChar: bracketright
Encoding: 93 93 62
Width: 217
Flags: HW
HStem: -102 21<-5 132 -5 -5> 410 21
Fore
132 -102 m 1
 -5 -102 l 1
 -1 -85 l 1
 44 -85 l 2
 83 -84 89 -79 99 -41 c 2
 207 362 l 1
 216 397 222 414 191 414 c 2
 133 414 l 1
 137 431 l 1
 274 431 l 1
 132 -102 l 1
EndSplineSet
EndChar
StartChar: asciicircum
Encoding: 94 94 63
Width: 305
Flags: HW
HStem: 410 21
Fore
342 167 m 1
 294 167 l 1
 256 386 l 1
 101 167 l 1
 54 167 l 1
 247 431 l 1
 289 431 l 1
 342 167 l 1
EndSplineSet
EndChar
StartChar: underscore
Encoding: 95 95 64
Width: 325
Flags: HW
HStem: -113 36
Fore
295 -113 m 1
 -30 -113 l 1
 -20 -75 l 1
 305 -75 l 1
 295 -113 l 1
EndSplineSet
EndChar
StartChar: grave
Encoding: 96 96 65
Width: 217
Flags: HW
Fore
246 330 m 1
 220 330 l 1
 143 389 l 2
 134 395 120 406 123 417 c 0
 127 432 136 441 149 441 c 0
 160 441 176 432 181 420 c 1
 246 330 l 1
EndSplineSet
EndChar
StartChar: a
Encoding: 97 97 66
Width: 289
Flags: HW
HStem: -7 36 285 13
Fore
296 28 m 1
 296 28 l 0
 282 16 250 -7 232 -7 c 0
 198 -7 193 18 199 43 c 1
 162 16 119 -7 91 -7 c 0
 52 -7 30 24 41 62 c 0
 62 140 174 167 235 189 c 1
 253 258 254 283 213 283 c 0
 200 283 175 277 165 265 c 1
 160 257 159 244 155 227 c 0
 151 212 133 198 118 198 c 0
 88 198 89 224 110 249 c 0
 142 288 186 298 226 298 c 0
 298 298 311 267 289 187 c 2
 252 50 l 1
 246 26 262 23 300 45 c 1
 296 28 l 1
200 61 m 1
 230 172 l 1
 185 155 120 144 104 85 c 0
 96 57 105 32 136 32 c 0
 149 32 190 46 200 61 c 1
EndSplineSet
EndChar
StartChar: b
Encoding: 98 98 67
Width: 325
Flags: HW
HStem: -7 21<137.5 200.5> 262 36 423 21
Fore
350 158 m 0
 350 158 l 0
 328 73 245 -7 156 -7 c 0
 119 -7 84 3 62 24 c 1
 59 28 57 35 60 44 c 1
 146 364 l 2
 158 409 149 403 114 403 c 1
 117 415 l 1
 142 421 160 424 178 430 c 2
 223 444 l 1
 170 246 l 1
 197 280 238 298 276 298 c 0
 351 298 368 224 350 158 c 0
286 130 m 0
 300 182 303 258 237 258 c 0
 189 258 166 230 158 201 c 2
 119 55 l 1
 111 33 118 32 134 23 c 0
 144 18 160 15 171 15 c 0
 236 15 271 76 286 130 c 0
EndSplineSet
EndChar
StartChar: c
Encoding: 99 99 68
Width: 289
Flags: HW
HStem: -7 42 277 21
Fore
294 97 m 1
 252 41 203 -7 136 -7 c 0
 66 -7 32 59 53 139 c 0
 76 224 145 298 242 298 c 0
 279 298 330 278 322 234 c 0
 318 219 300 206 285 206 c 0
 270 206 259 220 263 234 c 0
 270 260 260 279 225 279 c 0
 169 279 126 220 111 166 c 0
 95 106 110 39 177 39 c 0
 220 39 255 69 286 102 c 1
 294 97 l 1
EndSplineSet
EndChar
StartChar: d
Encoding: 100 100 69
Width: 325
Flags: HW
HStem: -7 28 277 21 423 21
Fore
327 29 m 1
 327 29 l 0
 293 20 257 8 219 -9 c 1
 231 39 l 1
 207 13 169 -7 136 -7 c 0
 55 -7 34 64 54 137 c 0
 74 213 150 298 234 298 c 0
 267 298 288 282 294 272 c 1
 319 364 l 1
 330 408 325 403 286 403 c 1
 289 415 l 1
 315 421 333 424 350 430 c 2
 395 444 l 1
 292 59 l 1
 285 35 309 39 329 39 c 1
 327 29 l 1
241 76 m 2
 273 195 l 2
 286 242 274 278 227 278 c 0
 173 278 131 217 115 157 c 0
 92 72 118 25 170 25 c 0
 207 25 235 54 241 76 c 2
EndSplineSet
EndChar
StartChar: e
Encoding: 101 101 70
Width: 289
Flags: HW
HStem: -7 42 179 21 277 21
Fore
302 103 m 1
 302 103 l 0
 266 44 201 -7 136 -7 c 0
 61 -7 32 62 52 139 c 0
 77 232 147 298 227 298 c 0
 297 298 326 247 310 180 c 1
 107 180 l 1
 92 118 101 37 175 37 c 0
 218 37 262 71 292 107 c 1
 302 103 l 1
249 200 m 1
 257 238 250 275 207 275 c 0
 161 275 132 241 115 200 c 1
 249 200 l 1
EndSplineSet
EndChar
StartChar: f
Encoding: 102 102 71
Width: 217
Flags: HW
HStem: 0 21<13 182 13 13> 270 21 377 67<307.5 310>
Fore
358 406 m 1
 354 392 340 377 325 377 c 0
 290 377 307 410 286 422 c 0
 279 426 269 427 260 423 c 1
 231 416 224 382 218 360 c 2
 200 291 l 1
 279 291 l 1
 274 271 l 1
 195 271 l 1
 136 52 l 1
 128 24 135 12 184 9 c 1
 182 0 l 1
 13 0 l 1
 15 9 l 1
 60 12 73 24 81 52 c 1
 140 271 l 1
 87 271 l 1
 92 291 l 1
 145 291 l 1
 151 314 157 334 167 354 c 0
 192 405 243 444 297 444 c 0
 323 444 352 439 358 406 c 1
EndSplineSet
EndChar
StartChar: g
Encoding: 103 103 72
Width: 325
Flags: HW
HStem: -141 36<94.5 122.5> -9 50 92 21 277 21
Fore
373 251 m 1
 319 251 l 0
 323 232 320 210 316 195 c 0
 300 133 242 96 185 96 c 0
 174 96 163 98 151 100 c 1
 137 97 102 70 102 55 c 1
 107 42 143 42 156 41 c 0
 242 37 312 44 291 -32 c 0
 272 -106 153 -141 92 -141 c 0
 17 -141 -9 -100 -2 -74 c 0
 5 -48 40 -30 82 1 c 1
 70 7 52 16 57 35 c 0
 64 61 103 87 134 106 c 1
 101 122 85 150 97 193 c 0
 114 257 177 298 239 298 c 0
 295 298 292 265 380 276 c 1
 373 251 l 1
261 177 m 0
 261 177 l 0
 271 213 269 280 225 280 c 0
 186 280 166 250 157 218 c 0
 146 177 143 113 196 113 c 0
 233 113 253 145 261 177 c 0
270 -44 m 0
 279 -11 234 -10 192 -9 c 0
 163 -9 124 -8 95 -2 c 1
 79 -16 54 -38 48 -59 c 0
 42 -82 61 -105 128 -105 c 0
 205 -105 260 -81 270 -44 c 0
EndSplineSet
EndChar
StartChar: h
Encoding: 104 104 73
Width: 325
Flags: HW
HStem: 0 21<6 143 6 6 182 319 182 182> 262 36 423 21
Fore
319 0 m 1
 182 0 l 1
 184 9 l 1
 216 12 229 24 237 52 c 1
 273 187 l 2
 283 225 290 263 243 263 c 0
 207 263 187 245 162 224 c 1
 116 52 l 1
 108 24 115 12 145 9 c 1
 143 0 l 1
 6 0 l 1
 8 9 l 1
 40 12 53 24 61 52 c 1
 145 364 l 1
 156 406 149 404 114 403 c 1
 117 415 l 1
 141 421 159 424 176 430 c 2
 221 444 l 1
 168 246 l 1
 198 275 237 298 276 298 c 0
 342 298 348 260 328 188 c 1
 292 52 l 1
 284 24 291 12 321 9 c 1
 319 0 l 1
EndSplineSet
EndChar
StartChar: i
Encoding: 105 105 74
Width: 181
Flags: HW
HStem: 0 21<15 169 15 15> 377 67<196.5 197>
Fore
230 410 m 0
 230 410 l 0
 225 392 206 377 188 377 c 0
 169 377 159 392 164 410 c 0
 169 429 187 444 206 444 c 0
 224 444 235 429 230 410 c 0
169 0 m 1
 15 0 l 1
 17 9 l 1
 57 12 70 24 78 52 c 1
 120 210 l 1
 134 261 127 265 83 254 c 1
 85 263 l 1
 199 298 l 1
 133 52 l 1
 125 24 132 12 171 9 c 1
 169 0 l 1
EndSplineSet
EndChar
StartChar: j
Encoding: 106 106 75
Width: 181
Flags: HW
HStem: 377 67
Fore
248 410 m 0
 248 410 l 0
 243 392 224 377 206 377 c 0
 188 377 177 392 182 410 c 0
 187 429 206 444 224 444 c 0
 242 444 253 429 248 410 c 0
136 8 m 1
 110 -91 58 -141 -15 -141 c 0
 -33 -141 -52 -135 -61 -124 c 1
 -70 -109 -60 -87 -45 -81 c 0
 -30 -74 -18 -77 -12 -86 c 1
 -8 -96 -3 -109 13 -118 c 0
 37 -130 56 -87 63 -61 c 2
 139 223 l 1
 148 258 140 260 99 254 c 1
 101 263 l 1
 214 298 l 1
 136 8 l 1
EndSplineSet
EndChar
StartChar: k
Encoding: 107 107 76
Width: 325
Flags: HW
HStem: 0 21<1 154 1 1 184 325 184 184> 423 21
Fore
325 0 m 1
 184 0 l 1
 186 9 l 1
 217 9 215 26 211 33 c 1
 148 161 l 1
 119 52 l 1
 111 24 118 12 156 9 c 1
 154 0 l 1
 1 0 l 1
 3 9 l 1
 43 12 56 24 64 52 c 1
 151 377 l 2
 159 407 152 405 115 403 c 1
 118 415 l 1
 144 421 162 424 179 430 c 2
 224 444 l 1
 151 171 l 1
 252 243 l 2
 262 250 272 258 281 267 c 1
 285 278 279 282 252 282 c 1
 254 291 l 1
 387 291 l 1
 385 282 l 1
 318 282 272 236 199 184 c 1
 261 64 l 2
 274 38 294 11 327 9 c 1
 325 0 l 1
EndSplineSet
EndChar
StartChar: l
Encoding: 108 108 77
Width: 181
Flags: HW
HStem: 0 21<13 169 13 13> 423 21
Fore
169 0 m 1
 13 0 l 1
 15 9 l 1
 57 12 69 24 77 52 c 1
 161 364 l 1
 173 412 167 406 122 406 c 1
 124 415 l 1
 157 421 206 433 238 444 c 1
 133 52 l 1
 125 24 131 12 171 9 c 1
 169 0 l 1
EndSplineSet
EndChar
StartChar: m
Encoding: 109 109 78
Width: 506
Flags: HW
HStem: 0 21<9 146 9 9 184 321 184 184 360 497 360 360> 262 36
Fore
497 0 m 1
 360 0 l 1
 362 9 l 1
 394 12 407 24 415 52 c 1
 450 184 l 2
 467 247 461 263 420 263 c 0
 390 263 361 248 340 224 c 1
 294 52 l 1
 286 24 293 12 323 9 c 1
 321 0 l 1
 184 0 l 1
 186 9 l 1
 218 12 231 24 239 52 c 1
 275 187 l 1
 285 221 293 263 250 263 c 0
 223 263 186 248 165 225 c 1
 119 52 l 1
 111 24 118 12 148 9 c 1
 146 0 l 1
 9 0 l 1
 11 9 l 1
 43 12 56 24 64 52 c 1
 106 210 l 1
 118 246 110 253 77 253 c 1
 80 264 l 1
 185 298 l 1
 173 255 l 1
 169 239 188 260 200 267 c 0
 226 284 257 298 286 298 c 0
 319 298 338 274 338 243 c 1
 369 270 417 298 454 298 c 0
 531 298 518 232 503 174 c 1
 470 52 l 1
 462 24 469 12 499 9 c 1
 497 0 l 1
EndSplineSet
EndChar
StartChar: n
Encoding: 110 110 79
Width: 325
Flags: HW
HStem: 0 21<6 143 6 6 182 319 182 182> 262 36
Fore
319 0 m 1
 182 0 l 1
 184 9 l 1
 216 12 229 24 237 52 c 1
 274 192 l 1
 285 230 289 263 243 263 c 0
 212 263 184 243 163 226 c 1
 116 52 l 1
 108 24 115 12 145 9 c 1
 143 0 l 1
 6 0 l 1
 8 9 l 1
 40 12 53 24 61 52 c 1
 104 211 l 1
 117 261 111 260 75 258 c 1
 78 267 l 1
 182 298 l 1
 168 246 l 1
 199 271 236 298 282 298 c 0
 332 298 348 263 330 193 c 1
 292 52 l 1
 284 24 291 12 321 9 c 1
 319 0 l 1
EndSplineSet
EndChar
StartChar: o
Encoding: 111 111 80
Width: 325
Flags: HW
HStem: -7 21<116.5 203> 277 21
Fore
348 155 m 0
 348 155 l 0
 325 70 248 -7 158 -7 c 0
 75 -7 37 63 58 142 c 0
 81 228 150 298 240 298 c 0
 326 298 370 240 348 155 c 0
279 124 m 0
 295 183 300 278 226 278 c 0
 178 278 143 234 127 177 c 0
 102 85 113 13 175 13 c 0
 226 13 264 68 279 124 c 0
EndSplineSet
EndChar
StartChar: p
Encoding: 112 112 81
Width: 325
Flags: HW
HStem: -7 21<151.5 205> 262 36<260 272>
Fore
348 158 m 0
 348 158 l 0
 325 71 247 -7 163 -7 c 0
 140 -7 121 6 110 23 c 1
 80 -89 l 2
 72 -118 79 -130 123 -132 c 1
 120 -141 l 1
 -36 -141 l 1
 -33 -132 l 1
 4 -130 17 -118 25 -89 c 2
 106 213 l 2
 116 250 119 263 71 258 c 1
 74 267 l 1
 184 298 l 1
 173 258 l 1
 168 243 174 255 193 269 c 0
 216 286 241 298 279 298 c 0
 351 298 369 234 348 158 c 0
285 132 m 0
 300 185 306 262 238 262 c 0
 219 262 198 253 181 240 c 0
 165 229 165 226 161 211 c 2
 122 67 l 2
 117 48 123 39 137 28 c 0
 146 20 160 15 175 15 c 0
 222 15 268 67 285 132 c 0
EndSplineSet
EndChar
StartChar: q
Encoding: 113 113 82
Width: 325
Flags: HW
HStem: -7 36 277 21
Fore
286 -141 m 1
 129 -141 l 1
 132 -132 l 1
 176 -130 189 -118 197 -89 c 2
 231 39 l 1
 197 15 160 -7 124 -7 c 0
 39 -7 35 72 53 139 c 0
 76 223 154 298 243 298 c 0
 269 298 291 291 308 277 c 1
 345 297 l 2
 357 303 355 293 353 286 c 2
 252 -89 l 2
 244 -118 251 -130 289 -132 c 1
 286 -141 l 1
245 91 m 1
 277 210 l 1
 286 241 293 260 265 276 c 0
 254 281 248 282 235 282 c 0
 171 282 129 213 115 159 c 0
 95 87 109 33 161 33 c 0
 181 33 206 40 225 53 c 0
 241 65 241 74 245 91 c 1
EndSplineSet
EndChar
StartChar: r
Encoding: 114 114 83
Width: 217
Flags: HW
HStem: 0 21<3 156 3 3> 262 36
Fore
285 255 m 0
 280 241 267 235 254 235 c 0
 231 235 232 258 216 258 c 0
 203 258 168 226 162 207 c 1
 121 52 l 1
 113 24 120 12 158 9 c 1
 156 0 l 1
 3 0 l 1
 5 9 l 1
 45 12 58 24 66 52 c 1
 104 194 l 1
 121 256 113 264 71 253 c 1
 73 263 l 1
 187 298 l 1
 171 239 l 1
 190 262 228 298 261 298 c 0
 286 298 297 283 285 255 c 0
EndSplineSet
EndChar
StartChar: s
Encoding: 115 115 84
Width: 253
Flags: HW
HStem: -7 21<118.5 154> 285 13
Fore
248 81 m 0
 233 25 180 -7 128 -7 c 0
 109 -7 99 -2 84 3 c 0
 49 15 45 4 41 -2 c 1
 32 -2 l 1
 60 100 l 1
 71 100 l 1
 66 53 77 9 131 9 c 0
 159 9 188 26 196 55 c 0
 214 124 67 126 91 218 c 0
 105 269 156 298 204 298 c 0
 219 298 230 294 249 286 c 0
 269 279 272 289 275 292 c 1
 283 292 l 1
 260 204 l 1
 250 204 l 1
 250 249 243 283 199 283 c 0
 174 283 146 267 139 241 c 0
 121 176 270 163 248 81 c 0
EndSplineSet
EndChar
StartChar: t
Encoding: 116 116 85
Width: 181
Flags: HW
HStem: -7 21<74.5 111.5> 270 21
Fore
194 44 m 1
 161 13 127 -7 96 -7 c 0
 53 -7 50 20 69 84 c 1
 119 271 l 1
 100 271 l 2
 92 271 76 267 85 280 c 1
 128 305 162 341 203 377 c 1
 180 291 l 1
 244 291 l 1
 239 271 l 1
 175 271 l 1
 127 95 l 1
 115 47 112 16 158 32 c 0
 169 36 179 44 187 52 c 1
 194 44 l 1
EndSplineSet
EndChar
StartChar: u
Encoding: 117 117 86
Width: 325
Flags: HW
HStem: -7 36 270 21
Fore
318 24 m 1
 290 16 252 4 218 -7 c 1
 233 50 l 1
 215 35 l 2
 197 19 163 -7 121 -7 c 0
 69 -7 55 30 70 86 c 2
 110 235 l 1
 120 274 118 282 82 282 c 1
 84 291 l 1
 180 291 l 1
 126 89 l 2
 117 56 123 31 159 31 c 0
 177 31 199 41 216 52 c 0
 238 67 236 75 242 98 c 2
 279 234 l 1
 289 274 288 282 245 282 c 1
 247 291 l 1
 349 291 l 1
 292 78 l 2
 283 44 282 31 321 33 c 1
 318 24 l 1
EndSplineSet
EndChar
StartChar: v
Encoding: 118 118 87
Width: 325
Flags: HW
HStem: -7 298<157.5 161>
Fore
380 282 m 1
 356 282 340 254 320 223 c 1
 176 11 l 2
 173 6 163 -7 159 -7 c 0
 156 -7 154 6 153 11 c 1
 114 247 l 1
 111 271 98 282 83 282 c 1
 85 291 l 1
 212 291 l 1
 210 282 l 1
 169 282 173 257 175 233 c 1
 197 78 l 1
 282 210 l 2
 316 262 328 282 290 282 c 1
 292 291 l 1
 382 291 l 1
 380 282 l 1
EndSplineSet
EndChar
StartChar: w
Encoding: 119 119 88
Width: 470
Flags: HW
HStem: -7 298<150 152 315 317>
Fore
527 282 m 1
 508 276 495 252 486 241 c 1
 322 -2 l 2
 321 -4 318 -7 316 -7 c 0
 314 -7 313 -4 311 -2 c 1
 289 174 l 1
 158 -2 l 2
 157 -4 153 -7 151 -7 c 0
 149 -7 148 -4 147 -2 c 1
 117 223 l 1
 112 264 114 282 90 282 c 1
 92 291 l 1
 209 291 l 1
 207 282 l 1
 190 283 176 280 171 260 c 0
 166 244 177 176 180 159 c 1
 189 76 l 1
 282 202 l 1
 280 258 279 282 247 282 c 1
 249 291 l 1
 380 291 l 1
 378 282 l 1
 334 283 330 269 335 223 c 1
 351 80 l 1
 440 210 l 2
 475 262 485 282 447 282 c 1
 449 291 l 1
 529 291 l 1
 527 282 l 1
EndSplineSet
EndChar
StartChar: x
Encoding: 120 120 89
Width: 325
Flags: HW
HStem: 0 21<11 106 11 11 181 312 181 181> 270 21
Fore
312 0 m 1
 181 0 l 1
 183 9 l 1
 208 11 227 17 220 32 c 2
 178 128 l 1
 112 55 l 2
 76 16 74 9 108 9 c 1
 106 0 l 1
 11 0 l 1
 13 9 l 1
 37 9 53 26 76 50 c 2
 173 150 l 1
 140 236 l 1
 130 259 133 280 92 282 c 1
 94 291 l 1
 229 291 l 1
 227 282 l 1
 204 282 196 273 194 265 c 0
 191 255 210 207 215 196 c 1
 227 210 273 250 278 267 c 0
 281 280 265 282 256 282 c 1
 258 291 l 1
 360 291 l 1
 358 282 l 1
 334 282 309 265 291 247 c 2
 222 176 l 1
 269 55 l 2
 279 29 291 9 314 9 c 1
 312 0 l 1
EndSplineSet
EndChar
StartChar: y
Encoding: 121 121 90
Width: 325
Flags: HW
HStem: -141 67 270 21
Fore
386 282 m 1
 373 282 352 260 342 245 c 2
 179 -5 l 2
 147 -54 94 -141 29 -141 c 0
 12 -141 -3 -135 -8 -120 c 1
 -9 -110 -9 -101 -1 -91 c 0
 7 -80 22 -76 34 -76 c 0
 44 -76 56 -83 70 -87 c 0
 87 -91 106 -76 146 -15 c 0
 153 -5 162 9 161 16 c 1
 114 254 l 1
 112 271 104 280 86 282 c 1
 88 291 l 1
 222 291 l 1
 220 282 l 1
 176 282 172 267 177 239 c 2
 207 74 l 1
 319 255 l 1
 328 267 329 280 298 282 c 1
 300 291 l 1
 388 291 l 1
 386 282 l 1
EndSplineSet
EndChar
StartChar: z
Encoding: 122 122 91
Width: 289
Flags: HW
HStem: 0 21<16 263 16 16> 270 21
Fore
296 88 m 1
 263 0 l 1
 16 0 l 1
 18 9 l 1
 264 271 l 1
 182 271 l 2
 126 271 117 250 104 215 c 1
 93 215 l 1
 115 291 l 1
 341 291 l 1
 339 282 l 1
 92 20 l 1
 174 20 l 2
 193 20 213 20 234 28 c 1
 261 35 272 69 284 91 c 1
 296 88 l 1
EndSplineSet
EndChar
StartChar: braceleft
Encoding: 123 123 92
Width: 312
Flags: HW
HStem: 423 21
Fore
193 -107 m 1
 119 -109 97 -91 118 -11 c 1
 146 93 l 1
 157 136 157 156 117 167 c 1
 160 179 175 200 186 241 c 2
 216 354 l 1
 236 431 276 444 341 444 c 1
 296 433 277 408 266 364 c 1
 235 250 l 1
 223 204 208 179 160 167 c 1
 204 155 202 126 189 79 c 2
 160 -28 l 1
 149 -72 154 -99 193 -107 c 1
EndSplineSet
EndChar
StartChar: bar
Encoding: 124 124 93
Width: 130
Flags: HW
HStem: 0 21<44 86 44 44> 423 21
Fore
86 0 m 1
 44 0 l 1
 163 444 l 1
 205 444 l 1
 86 0 l 1
EndSplineSet
EndChar
StartChar: braceright
Encoding: 125 125 94
Width: 312
Flags: HW
HStem: 423 21
Fore
286 167 m 1
 240 156 227 136 216 93 c 1
 188 -11 l 1
 167 -91 135 -109 62 -107 c 1
 105 -99 126 -72 137 -28 c 1
 166 79 l 2
 179 126 192 155 242 167 c 1
 200 179 200 204 212 250 c 1
 243 364 l 1
 254 408 249 433 210 444 c 1
 275 444 306 431 286 354 c 1
 256 241 l 2
 245 200 248 179 286 167 c 1
EndSplineSet
EndChar
StartChar: asciitilde
Encoding: 126 126 95
Width: 352
Flags: HW
HStem: 129 42 174 42<139 173.5>
Fore
394 200 m 1
 365 165 325 129 283 129 c 0
 233 129 196 174 151 174 c 0
 115 174 88 141 66 115 c 1
 50 141 l 1
 79 176 116 216 162 216 c 0
 207 216 260 170 295 170 c 0
 324 170 358 201 378 226 c 1
 394 200 l 1
EndSplineSet
EndChar
StartChar: uni0E10.descless
Encoding: 128 63232 96
Width: 331
Flags: HW
HStem: -5 28<187.5 204.5> 124 21<105.5 128> 212 21
Fore
394 372 m 0
 394 372 l 0
 353 300 286 319 276 323 c 0
 192 352 164 349 135 307 c 1
 303 261 l 1
 312 256 333 255 323 216 c 1
 283 69 l 1
 272 27 240 -5 189 -5 c 0
 147 -5 124 29 134 69 c 1
 151 129 l 1
 141 125 133 124 123 124 c 0
 88 124 74 151 84 182 c 0
 95 211 120 233 152 233 c 0
 205 234 221 208 212 176 c 1
 179 51 l 1
 175 38 179 23 196 23 c 0
 213 23 225 38 228 50 c 2
 271 209 l 1
 277 230 275 237 261 241 c 2
 95 286 l 1
 109 311 152 389 224 387 c 0
 268 387 343 343 387 379 c 0
 394 385 399 382 394 372 c 0
130 149 m 0
 169 149 185 208 146 208 c 0
 108 208 92 149 130 149 c 0
EndSplineSet
KernsSLIF: 212 30 0 0 215 30 0 0 214 30 0 0 213 30 0 0
EndChar
StartChar: uni0E34.left
Encoding: 129 63233 97
Width: 0
Flags: HW
Fore
-52 426 m 0
 -52 426 l 0
 -66 434 -136 470 -181 476 c 0
 -243 486 -301 477 -314 474 c 1
 -278 543 -210 586 -144 581 c 0
 -72 576 -32 518 -52 426 c 0
-75 468 m 1
 -81 523 -109 543 -155 549 c 0
 -195 554 -236 534 -258 507 c 1
 -258 507 -210 511 -167 503 c 0
 -109 492 -75 468 -75 468 c 1
EndSplineSet
EndChar
StartChar: uni0E35.left
Encoding: 130 63234 98
Width: 0
Flags: HW
Fore
-52 426 m 0
 -52 426 l 0
 -66 434 -136 469 -181 476 c 0
 -245 486 -301 477 -314 474 c 1
 -284 534 -216 586 -150 581 c 0
 -128 580 -99 575 -77 555 c 1
 -60 619 l 1
 -16 619 l 1
 -49 496 l 1
 -49 496 -43 469 -52 426 c 0
-75 468 m 1
 -81 523 -109 543 -155 549 c 0
 -195 554 -236 534 -258 507 c 1
 -258 507 -210 511 -167 503 c 0
 -109 492 -75 468 -75 468 c 1
EndSplineSet
EndChar
StartChar: uni0E36.left
Encoding: 131 63235 99
Width: 0
Flags: HW
HStem: 588 28
Fore
-64 535 m 0
 -64 535 l 0
 -29 535 -14 589 -49 589 c 0
 -83 589 -98 535 -64 535 c 0
-75 468 m 1
 -75 468 l 0
 -81 523 -109 543 -155 549 c 0
 -195 554 -236 534 -258 507 c 1
 -258 507 -210 511 -167 503 c 0
 -109 492 -75 468 -75 468 c 1
-52 426 m 1
 -66 434 -136 469 -181 476 c 0
 -245 486 -301 477 -314 474 c 1
 -284 535 -213 586 -148 581 c 0
 -122 579 -105 571 -105 571 c 1
 -101 591 -75 616 -40 616 c 0
 -9 616 6 591 -1 563 c 0
 -7 540 -27 515 -52 510 c 1
 -52 510 -40 477 -52 426 c 1
EndSplineSet
EndChar
StartChar: uni0E37.left
Encoding: 132 63236 100
Width: 0
Flags: HW
Fore
-52 426 m 0
 -52 426 l 0
 -66 434 -136 469 -181 476 c 0
 -245 486 -301 477 -314 474 c 1
 -273 554 -195 587 -147 579 c 1
 -135 619 l 1
 -99 619 l 1
 -111 571 l 1
 -90 566 -76 550 -76 550 c 1
 -57 619 l 1
 -19 619 l 1
 -50 497 l 1
 -50 497 -42 471 -52 426 c 0
-75 468 m 1
 -81 523 -109 543 -155 549 c 0
 -195 554 -236 534 -258 507 c 1
 -258 507 -210 511 -167 503 c 0
 -109 492 -75 468 -75 468 c 1
EndSplineSet
EndChar
StartChar: ellipsis
Encoding: 133 8230 101
Width: 650
Flags: HW
HStem: -9 77
Fore
587 29 m 0
 587 29 l 0
 581 8 560 -9 539 -9 c 0
 519 -9 507 9 513 29 c 0
 518 48 540 66 559 66 c 0
 579 66 592 49 587 29 c 0
371 29 m 0
 371 29 l 0
 365 8 343 -9 323 -9 c 0
 302 -9 290 9 296 29 c 0
 301 48 323 66 343 66 c 0
 363 66 376 49 371 29 c 0
154 29 m 0
 148 8 127 -9 106 -9 c 0
 86 -9 74 9 80 29 c 0
 85 48 107 66 126 66 c 0
 146 66 159 49 154 29 c 0
EndSplineSet
EndChar
StartChar: uni0E48.low_left
Encoding: 134 63237 102
Width: 0
Flags: HW
Fore
-17 603 m 1
 -69 446 l 1
 -102 446 l 1
 -70 603 l 1
 -17 603 l 1
EndSplineSet
EndChar
StartChar: uni0E49.low_left
Encoding: 135 63238 103
Width: 0
Flags: HW
HStem: 505 21<-255 -214> 589 21
Fore
13 606 m 1
 13 606 l 0
 -68 415 -256 434 -275 436 c 1
 -269 458 l 1
 -263 460 -222 478 -202 508 c 1
 -202 508 -209 505 -219 505 c 0
 -291 505 -263 610 -191 610 c 0
 -135 610 -146 558 -146 558 c 1
 -163 498 -211 466 -211 466 c 1
 -210 465 l 1
 -168 471 -74 499 -40 606 c 1
 13 606 l 1
-212 528 m 0
 -173 528 -157 587 -196 587 c 0
 -236 587 -252 528 -212 528 c 0
EndSplineSet
EndChar
StartChar: uni0E4A.low_left
Encoding: 136 63239 104
Width: 0
Flags: HW
HStem: 552 36
Fore
-2 590 m 1
 -2 590 l 0
 -21 500 -82 445 -167 436 c 1
 -163 452 l 1
 -121 474 -106 544 -137 553 c 1
 -181 528 l 1
 -209 553 l 1
 -233 553 -258 525 -261 500 c 1
 -261 500 -249 521 -217 521 c 0
 -192 521 -180 501 -185 480 c 0
 -192 454 -213 434 -241 434 c 0
 -282 434 -297 469 -285 516 c 0
 -276 549 -233 588 -199 588 c 1
 -199 588 -172 558 -171 558 c 2
 -129 587 l 1
 -59 568 -89 502 -111 474 c 1
 -67 499 -46 543 -44 590 c 1
 -2 590 l 1
-206 477 m 0
 -197 510 -246 510 -255 477 c 0
 -264 445 -215 445 -206 477 c 0
EndSplineSet
EndChar
StartChar: uni0E4B.low_left
Encoding: 137 63240 105
Width: 0
Flags: HW
Fore
-16 506 m 1
 -91 505 l 1
 -109 440 l 1
 -146 440 l 1
 -130 505 l 1
 -204 506 l 1
 -195 543 l 1
 -120 544 l 1
 -104 609 l 1
 -61 609 l 1
 -79 544 l 1
 -7 543 l 1
 -16 506 l 1
EndSplineSet
EndChar
StartChar: uni0E4C.low_left
Encoding: 138 63241 106
Width: 0
Flags: HW
HStem: 436 21<-181 -149>
Fore
19 621 m 1
 19 621 l 0
 -6 551 -94 536 -116 532 c 2
 -118 531 l 1
 -100 528 -94 506 -100 487 c 0
 -107 460 -133 436 -165 436 c 0
 -197 436 -212 460 -205 487 c 0
 -198 512 -182 541 -110 560 c 0
 -75 570 -34 590 -25 630 c 1
 19 621 l 1
-159 458 m 0
 -121 458 -107 513 -145 513 c 0
 -183 513 -197 458 -159 458 c 0
EndSplineSet
EndChar
StartChar: uni0E48.low
Encoding: 139 63242 107
Width: 0
Flags: HW
HStem: 436 157
AnchorPoint: "AboveBase" 20.2734 420 mark 0
Fore
64 595 m 1
 20 436 l 1
 -18 436 l 1
 4 595 l 1
 64 595 l 1
EndSplineSet
Substitution: 0 65534 'amni' uni0E4D
EndChar
StartChar: uni0E49.low
Encoding: 140 63243 108
Width: 0
Flags: HW
AnchorPoint: "AboveBase" 20.2734 420 mark 0
Fore
145 620 m 1
 145 620 l 0
 81 414 -123 434 -144 436 c 1
 -139 459 l 1
 -133 461 -93 477 -73 508 c 1
 -73 508 l 1
 -73 508 -82 505 -93 505 c 0
 -173 505 -148 622 -68 622 c 0
 -6 622 -17 565 -17 564 c 0
 -31 498 -82 466 -82 466 c 1
 -81 466 l 1
 -81 466 55 470 92 620 c 1
 145 620 l 1
-88 529 m 0
 -41 529 -26 598 -73 598 c 0
 -118 598 -133 529 -88 529 c 0
EndSplineSet
Substitution: 0 65534 'amni' uni0E4D
EndChar
StartChar: uni0E4A.low
Encoding: 141 63244 109
Width: 0
Flags: HW
HStem: 571 36
VStem: -203 20
AnchorPoint: "AboveBase" 20.2734 420 mark 0
Fore
133 603 m 1
 133 603 l 0
 117 520 54 450 -52 436 c 1
 -48 455 l 1
 -2 480 11 559 -25 570 c 1
 -73 541 l 1
 -77 544 -108 570 -108 570 c 1
 -134 570 -165 531 -163 506 c 1
 -162 506 l 1
 -162 506 -150 530 -116 530 c 0
 -90 530 -73 509 -78 485 c 0
 -84 457 -106 435 -137 435 c 0
 -183 435 -199 477 -188 527 c 0
 -181 561 -137 606 -98 607 c 1
 -97 606 -66 575 -65 575 c 2
 -19 607 l 1
 76 578 9 481 9 481 c 1
 10 481 l 2
 47 501 86 555 84 603 c 1
 133 603 l 1
-101 481 m 0
 -93 518 -147 518 -155 481 c 0
 -162 446 -108 446 -101 481 c 0
EndSplineSet
Substitution: 0 65534 'amni' uni0E4D
EndChar
StartChar: uni0E4B.low
Encoding: 142 63245 110
Width: 0
Flags: HW
AnchorPoint: "AboveBase" 20.2734 420 mark 0
Fore
108 507 m 1
 35 506 l 1
 20 441 l 1
 -19 441 l 1
 -6 506 l 1
 -80 507 l 1
 -72 546 l 1
 1 547 l 1
 14 613 l 1
 59 613 l 1
 44 547 l 1
 116 546 l 1
 108 507 l 1
EndSplineSet
Substitution: 0 65534 'amni' uni0E4D
EndChar
StartChar: uni0E4C.low
Encoding: 143 63246 111
Width: 0
Flags: HW
AnchorPoint: "AboveBase" 20.2734 420 mark 0
Fore
131 618 m 1
 131 618 l 0
 103 556 26 542 2 538 c 2
 0 537 l 1
 23 533 28 509 24 489 c 0
 18 460 -10 435 -43 435 c 0
 -81 435 -94 460 -88 491 c 0
 -82 516 -68 545 5 567 c 0
 41 578 73 597 87 632 c 1
 131 618 l 1
-37 460 m 0
 -0 460 12 517 -25 517 c 0
 -65 517 -77 460 -37 460 c 0
EndSplineSet
EndChar
StartChar: uni0E0D.descless
Encoding: 144 63247 112
Width: 519
Flags: HW
HStem: -3 21<323 379.5> 257 28
Fore
470 70 m 1
 470 70 l 0
 461 36 408 -3 351 -3 c 0
 295 -3 265 33 276 75 c 2
 327 266 l 1
 362 394 189 384 137 285 c 1
 248 285 l 1
 241 256 l 1
 234 256 211 256 210 256 c 0
 181 256 173 223 173 223 c 1
 172 221 141 103 141 103 c 1
 241 134 222 1 137 -3 c 0
 72 -6 75 47 82 73 c 2
 120 217 l 2
 128 247 153 256 153 256 c 1
 99 256 l 1
 145 422 414 441 378 270 c 1
 324 68 l 2
 317 42 330 21 358 21 c 0
 389 21 412 41 419 67 c 2
 493 345 l 1
 536 383 l 1
 544 388 556 392 550 369 c 0
 550 368 470 70 470 70 c 1
144 23 m 0
 183 23 199 81 160 81 c 0
 121 81 105 23 144 23 c 0
EndSplineSet
EndChar
StartChar: quoteleft
Encoding: 145 8216 113
Width: 217
Flags: HW
HStem: 297 77
Fore
249 341 m 0
 242 314 222 297 194 297 c 0
 153 297 146 335 155 368 c 0
 166 410 220 456 265 474 c 1
 269 456 l 1
 241 442 199 406 193 383 c 0
 192 379 190 376 194 376 c 0
 199 376 206 382 219 381 c 0
 241 380 256 365 249 341 c 0
EndSplineSet
EndChar
StartChar: quoteright
Encoding: 146 8217 114
Width: 217
Flags: HW
Fore
173 429 m 0
 180 456 201 473 229 473 c 0
 270 473 277 435 268 402 c 0
 256 360 202 314 157 296 c 1
 153 314 l 1
 181 328 224 364 230 387 c 0
 231 391 233 394 229 394 c 0
 224 394 216 388 203 389 c 0
 181 390 167 405 173 429 c 0
EndSplineSet
EndChar
StartChar: quotedblleft
Encoding: 147 8220 115
Width: 308
Flags: HW
HStem: 297 77
Fore
370 341 m 0
 370 341 l 0
 363 314 343 297 315 297 c 0
 274 297 267 335 276 368 c 0
 287 410 341 456 386 474 c 1
 390 456 l 1
 362 442 320 406 314 383 c 0
 313 379 311 376 315 376 c 0
 320 376 327 382 340 381 c 0
 362 380 377 365 370 341 c 0
209 341 m 0
 202 314 182 297 154 297 c 0
 113 297 106 335 115 368 c 0
 126 410 180 456 225 474 c 1
 229 456 l 1
 201 442 159 406 153 383 c 0
 152 379 150 376 154 376 c 0
 159 376 166 382 179 381 c 0
 201 380 216 365 209 341 c 0
EndSplineSet
EndChar
StartChar: quotedblright
Encoding: 148 8221 116
Width: 308
Flags: HW
HStem: 396 77
Fore
143 429 m 0
 143 429 l 0
 150 456 171 473 199 473 c 0
 240 473 247 435 238 402 c 0
 226 360 172 314 127 296 c 1
 123 314 l 1
 151 328 194 364 200 387 c 0
 201 391 203 394 199 394 c 0
 194 394 186 388 173 389 c 0
 151 390 137 405 143 429 c 0
304 429 m 0
 311 456 332 473 360 473 c 0
 401 473 408 435 399 402 c 0
 387 360 333 314 288 296 c 1
 284 314 l 1
 312 328 355 364 361 387 c 0
 362 391 364 394 360 394 c 0
 355 394 347 388 334 389 c 0
 312 390 298 405 304 429 c 0
EndSplineSet
EndChar
StartChar: bullet
Encoding: 149 8226 117
Width: 251
Flags: HW
HStem: 123 170<180.5 182>
Fore
266 208 m 0
 253 161 206 123 158 123 c 0
 112 123 84 161 97 208 c 1
 108 255 157 293 204 293 c 0
 252 293 278 255 266 208 c 0
EndSplineSet
EndChar
StartChar: endash
Encoding: 150 8211 118
Width: 500
Flags: HW
HStem: 139 28
Fore
515 139 m 1
 59 139 l 1
 68 170 l 1
 524 170 l 1
 515 139 l 1
EndSplineSet
EndChar
StartChar: emdash
Encoding: 151 8212 119
Width: 1000
Flags: HW
HStem: 139 28
Fore
1023 139 m 1
 51 139 l 1
 60 170 l 1
 1032 170 l 1
 1023 139 l 1
EndSplineSet
EndChar
StartChar: uni0E31.left
Encoding: 152 63248 120
Width: 0
Flags: HW
HStem: 566 28
Fore
201 591 m 1
 201 591 l 0
 108 409 -176 401 -179 521 c 0
 -180 556 -148 593 -104 594 c 0
 -78 595 -58 581 -59 554 c 0
 -59 504 -106 485 -106 485 c 1
 8 444 122 531 144 591 c 1
 201 591 l 1
-126 508 m 0
 -87 508 -71 567 -110 567 c 0
 -150 567 -166 508 -126 508 c 0
EndSplineSet
EndChar
StartChar: uni0E4D.left
Encoding: 153 63249 121
Width: 0
Flags: HW
HStem: 440 28 534 28<-108 -62.5>
Fore
-110 440 m 0
 -110 440 l 0
 -191 440 -158 562 -77 562 c 0
 3 562 -28 440 -110 440 c 0
-103 467 m 0
 -58 467 -40 534 -85 534 c 0
 -131 534 -149 467 -103 467 c 0
EndSplineSet
EndChar
StartChar: uni0E47.left
Encoding: 154 63250 122
Width: 0
Flags: HW
HStem: 485 36<-197 -168.5>
Fore
21 648 m 1
 21 648 l 0
 3 583 -39 545 -137 565 c 0
 -177 573 -206 574 -224 535 c 0
 -232 517 -232 497 -229 490 c 1
 -229 490 -214 521 -180 521 c 0
 -146 521 -141 486 -126 478 c 1
 -126 478 -127 482 -126 487 c 0
 -109 550 -14 549 -31 485 c 0
 -40 451 -70 435 -91 435 c 0
 -156 435 -152 485 -185 485 c 0
 -219 485 -225 445 -218 435 c 1
 -242 435 l 1
 -264 457 -273 503 -248 551 c 0
 -234 580 -194 620 -117 601 c 0
 -66 589 -37 593 -25 648 c 1
 21 648 l 1
-54 485 m 0
 -45 519 -95 519 -104 485 c 0
 -113 453 -63 453 -54 485 c 0
EndSplineSet
EndChar
StartChar: uni0E48.left
Encoding: 155 63251 123
Width: 0
Flags: HW
Fore
34 798 m 1
 -12 655 l 1
 -47 655 l 1
 -17 798 l 1
 34 798 l 1
EndSplineSet
EndChar
StartChar: uni0E49.left
Encoding: 156 63252 124
Width: 0
Flags: HW
HStem: 702 21<-69.5 -54.5> 779 21
Fore
164 800 m 1
 164 800 l 0
 116 685 6 635 -110 649 c 1
 -105 668 l 1
 -87 673 -64 683 -47 704 c 1
 -47 704 -53 702 -56 702 c 0
 -125 702 -99 800 -30 800 c 0
 21 800 9 751 9 751 c 1
 -5 698 -48 674 -48 674 c 1
 -49 672 l 1
 22 676 87 715 115 800 c 1
 164 800 l 1
-50 723 m 0
 -14 723 0 778 -36 778 c 0
 -75 778 -89 723 -50 723 c 0
EndSplineSet
EndChar
StartChar: uni0E4A.left
Encoding: 157 63253 125
Width: 0
Flags: HW
HStem: 764 36
Fore
162 800 m 1
 162 800 l 0
 143 710 80 659 -2 648 c 1
 2 664 l 1
 44 686 59 756 28 765 c 1
 -16 740 l 1
 -44 765 l 1
 -68 765 -94 737 -96 712 c 1
 -96 712 -85 733 -53 733 c 0
 -28 733 -15 713 -21 692 c 0
 -28 666 -48 647 -76 647 c 0
 -117 647 -133 681 -120 728 c 0
 -111 761 -69 800 -35 800 c 1
 -35 800 -8 770 -7 770 c 2
 36 800 l 1
 106 781 75 714 54 686 c 1
 98 711 119 753 120 800 c 1
 162 800 l 1
-41 689 m 0
 -33 722 -82 722 -90 689 c 0
 -99 658 -50 658 -41 689 c 0
EndSplineSet
EndChar
StartChar: uni0E4B.left
Encoding: 158 63254 126
Width: 0
Flags: HW
Fore
72 704 m 1
 3 703 l 1
 -13 646 l 1
 -50 646 l 1
 -36 703 l 1
 -105 704 l 1
 -95 741 l 1
 -26 742 l 1
 -12 800 l 1
 31 800 l 1
 15 742 l 1
 82 741 l 1
 72 704 l 1
EndSplineSet
EndChar
StartChar: uni0E4C.left
Encoding: 159 63255 127
Width: 0
Flags: HW
HStem: 601 21<-60 -17.5>
Fore
138 758 m 1
 138 758 l 0
 99 693 -3 692 2 690 c 0
 40 671 9 601 -44 601 c 0
 -76 601 -90 621 -82 649 c 0
 -72 688 -35 710 13 718 c 0
 31 721 91 742 102 777 c 1
 138 758 l 1
-40 620 m 0
 -3 620 12 674 -25 674 c 0
 -61 674 -76 620 -40 620 c 0
EndSplineSet
EndChar
StartChar: uni0E01
Encoding: 161 3585 129
Width: 392
Flags: HW
HStem: 0 21<62 114 62 62 275 325 275 275> 256 28
Fore
325 0 m 1
 275 0 l 1
 346 265 l 2
 380 391 193 380 139 284 c 1
 250 284 l 1
 242 255 l 1
 235 255 211 255 210 255 c 0
 182 255 173 222 173 222 c 1
 114 0 l 1
 62 0 l 1
 119 211 l 1
 127 243 152 255 152 255 c 1
 97 255 l 1
 142 423 433 441 397 269 c 1
 325 0 l 1
EndSplineSet
EndChar
StartChar: uni0E02
Encoding: 162 3586 130
Width: 381
Flags: HW
HStem: -5 28<231.5 248> 208 21<121.5 158.5> 286 21 361 28
Fore
332 69 m 1
 332 69 l 0
 321 26 285 -5 233 -5 c 0
 186 -5 160 27 171 69 c 1
 232 295 l 2
 241 329 231 356 199 356 c 0
 165 356 136 334 125 295 c 1
 140 305 146 307 161 307 c 0
 230 306 200 208 136 208 c 0
 84 208 86 265 100 305 c 0
 116 351 158 389 215 389 c 0
 275 389 298 346 283 292 c 1
 219 51 l 1
 215 37 223 23 240 23 c 0
 256 23 273 38 276 50 c 2
 355 345 l 1
 398 383 l 1
 406 388 419 392 413 369 c 0
 413 368 332 69 332 69 c 1
140 229 m 0
 177 229 192 285 155 285 c 0
 118 285 103 229 140 229 c 0
EndSplineSet
EndChar
StartChar: uni0E03
Encoding: 163 3587 131
Width: 413
Flags: HW
HStem: -5 28<261.5 280> 182 21<112 149.5> 261 21
Fore
363 69 m 1
 363 69 l 0
 352 26 316 -5 264 -5 c 0
 217 -5 192 29 202 69 c 1
 266 300 l 2
 272 322 272 341 258 341 c 1
 199 294 l 1
 165 341 l 1
 145 341 123 314 116 269 c 1
 116 269 129 282 152 282 c 0
 220 282 192 182 124 182 c 0
 67 182 75 254 96 306 c 0
 116 355 149 378 177 386 c 1
 210 335 l 1
 271 385 l 1
 313 382 332 349 318 300 c 1
 250 51 l 2
 246 37 252 23 271 23 c 0
 289 23 304 38 307 50 c 2
 386 345 l 1
 429 383 l 1
 437 388 450 392 444 369 c 0
 444 368 363 69 363 69 c 1
130 203 m 0
 169 203 185 260 146 260 c 0
 108 260 94 203 130 203 c 0
EndSplineSet
EndChar
StartChar: uni0E04
Encoding: 164 3588 132
Width: 384
Flags: HW
HStem: 0 21<66 117 66 66 268 268 268 318> 178 21<198.5 249.5> 268 21 362 28
Fore
220 201 m 0
 220 201 l 0
 264 201 281 265 237 265 c 0
 194 265 177 201 220 201 c 0
137 209 m 1
 154 245 187 289 241 289 c 0
 317 289 288 178 211 178 c 0
 186 178 177 196 177 196 c 1
 167 182 160 160 157 149 c 2
 117 0 l 1
 66 0 l 1
 105 146 l 2
 112 173 77 202 95 269 c 0
 114 338 188 390 265 390 c 0
 346 390 415 361 388 261 c 2
 318 0 l 1
 268 0 l 1
 338 261 l 2
 359 339 315 360 256 360 c 0
 193 360 137 312 125 269 c 0
 117 240 120 218 137 209 c 1
EndSplineSet
EndChar
StartChar: uni0E05
Encoding: 165 3589 133
Width: 383
Flags: HW
HStem: 0 21<66 117 66 66 267 317 267 267> 178 21<199.5 249.5> 268 21
Fore
317 0 m 1
 267 0 l 1
 337 260 l 2
 347 298 357 328 320 350 c 1
 250 305 l 1
 202 350 l 1
 177 344 138 312 126 269 c 0
 118 238 123 218 138 209 c 1
 158 254 187 289 241 289 c 0
 317 289 288 178 211 178 c 0
 188 178 178 192 178 192 c 1
 170 187 164 174 159 156 c 2
 117 0 l 1
 66 0 l 1
 106 149 l 1
 113 177 78 206 95 269 c 0
 115 345 184 378 215 387 c 1
 259 341 l 1
 328 387 l 1
 351 383 413 359 387 260 c 1
 317 0 l 1
220 201 m 0
 264 201 281 265 237 265 c 0
 194 265 177 201 220 201 c 0
EndSplineSet
EndChar
StartChar: uni0E06
Encoding: 166 3590 134
Width: 493
Flags: HW
HStem: -5 21<184 212> 182 21<115 152.5> 261 21
Fore
199 44 m 0
 212 94 l 0
 173 97 154 49 169 33 c 1
 175 29 196 26 199 44 c 0
269 300 m 1
 269 300 l 0
 275 322 275 341 261 341 c 1
 202 294 l 1
 168 341 l 1
 148 341 126 314 119 269 c 1
 119 269 132 282 155 282 c 0
 223 282 195 182 127 182 c 0
 70 182 78 254 99 306 c 0
 119 355 152 378 180 386 c 1
 213 335 l 1
 274 385 l 1
 316 382 335 349 321 300 c 1
 272 124 l 1
 272 124 355 111 387 50 c 1
 466 343 l 1
 508 381 l 1
 515 386 529 390 522 367 c 0
 522 366 432 29 424 0 c 1
 371 0 l 1
 343 87 265 92 265 92 c 1
 251 37 240 -5 184 -5 c 0
 93 -6 136 130 222 129 c 1
 269 300 l 1
133 203 m 0
 172 203 188 260 149 260 c 0
 111 260 97 203 133 203 c 0
EndSplineSet
EndChar
StartChar: uni0E07
Encoding: 167 3591 135
Width: 312
Flags: HW
HStem: 0 21<192 246 192 192> 275 21 366 21
Fore
246 0 m 1
 192 0 l 1
 77 175 l 1
 88 212 l 1
 211 64 l 1
 269 281 l 1
 260 273 249 272 240 272 c 0
 158 272 189 387 276 387 c 0
 355 387 333 326 331 318 c 0
 331 317 246 0 246 0 c 1
244 296 m 0
 289 296 307 362 262 362 c 0
 217 362 199 296 244 296 c 0
EndSplineSet
EndChar
StartChar: uni0E08
Encoding: 168 3592 136
Width: 368
Flags: HW
HStem: -3 28<218 236.5> 180 21<146 168.5> 263 28 353 36
Fore
320 71 m 1
 320 71 l 0
 309 28 271 -3 219 -3 c 0
 176 -3 148 31 159 71 c 2
 190 186 l 1
 181 182 173 180 164 180 c 0
 128 180 116 209 125 239 c 0
 135 269 163 291 198 291 c 0
 253 292 261 262 253 231 c 1
 205 53 l 2
 201 39 209 25 227 25 c 0
 246 25 260 40 263 52 c 2
 322 273 l 2
 335 322 306 354 253 354 c 0
 182 354 130 302 119 286 c 1
 100 295 l 1
 124 331 189 389 262 389 c 0
 348 389 394 347 373 269 c 2
 320 71 l 1
171 206 m 0
 210 206 226 264 187 264 c 0
 148 264 132 206 171 206 c 0
EndSplineSet
EndChar
StartChar: uni0E09
Encoding: 169 3593 137
Width: 401
Flags: HW
HStem: -5 21<290 339>
VStem: 259 24
Fore
364 118 m 0
 364 118 l 0
 361 110 351 107 351 107 c 1
 350 105 l 1
 401 92 375 -5 303 -5 c 0
 277 -5 263 10 261 35 c 0
 260 61 283 83 283 83 c 1
 208 69 169 9 164 0 c 1
 115 0 l 1
 157 156 l 1
 56 126 70 257 158 263 c 0
 220 267 228 235 216 190 c 2
 181 59 l 1
 185 58 l 1
 185 58 224 108 311 112 c 1
 353 270 l 2
 366 319 333 354 271 354 c 0
 202 354 141 302 129 286 c 1
 110 295 l 1
 221 441 441 405 405 271 c 2
 405 271 364 119 364 118 c 0
136 177 m 0
 136 177 l 0
 175 177 192 237 153 237 c 0
 114 237 97 177 136 177 c 0
310 21 m 0
 351 21 366 79 325 79 c 0
 286 79 271 21 310 21 c 0
EndSplineSet
EndChar
StartChar: uni0E0A
Encoding: 170 3594 138
Width: 380
Flags: HW
HStem: 0 28 208 21<140 158> 286 21 360 28
Fore
453 385 m 1
 453 385 l 0
 406 291 333 274 333 274 c 1
 409 252 344 -1 240 0 c 2
 110 0 l 1
 119 32 l 1
 161 32 l 1
 231 295 l 1
 240 327 234 356 194 356 c 0
 157 356 128 321 125 293 c 1
 135 304 148 307 162 307 c 0
 228 305 199 208 136 208 c 0
 88 208 82 256 98 303 c 0
 115 351 157 388 213 388 c 0
 310 388 283 293 283 293 c 1
 342 290 386 346 397 385 c 1
 453 385 l 1
140 229 m 0
 140 229 l 0
 176 229 191 285 155 285 c 0
 116 285 101 229 140 229 c 0
307 252 m 1
 297 258 284 260 273 259 c 1
 213 32 l 1
 240 32 l 2
 296 32 345 218 307 252 c 1
EndSplineSet
EndChar
StartChar: uni0E0B
Encoding: 171 3595 139
Width: 423
Flags: HW
HStem: 0 28 182 21<115 152.5> 260 21<130 168.5 311 317.5>
Fore
341 251 m 0
 341 251 l 0
 331 257 324 260 311 260 c 1
 247 32 l 1
 274 32 l 2
 328 33 381 217 341 251 c 0
269 300 m 1
 269 300 l 0
 275 322 275 341 261 341 c 1
 202 294 l 1
 168 341 l 1
 148 341 126 314 119 269 c 1
 119 269 132 282 155 282 c 0
 223 282 195 182 127 182 c 0
 70 182 78 254 99 306 c 0
 119 355 152 378 180 386 c 1
 213 335 l 1
 274 385 l 1
 316 382 335 349 321 300 c 1
 320 293 l 1
 382 290 420 346 431 385 c 1
 487 385 l 1
 446 297 368 275 368 275 c 1
 440 247 378 -1 274 0 c 2
 145 0 l 1
 154 32 l 1
 195 32 l 1
 269 300 l 1
133 203 m 0
 172 203 188 260 149 260 c 0
 111 260 97 203 133 203 c 0
EndSplineSet
EndChar
StartChar: uni0E0C
Encoding: 172 3596 140
Width: 531
Flags: HW
HStem: -5 21<101.5 170 232.5 295.5> 256 28
VStem: 411 149
Fore
462 0 m 0
 411 0 l 0
 416 72 346 78 346 78 c 1
 334 34 320 -5 271 -5 c 0
 194 -5 230 111 304 108 c 1
 346 265 l 1
 379 393 193 379 139 284 c 1
 250 284 l 1
 242 255 l 1
 235 255 211 255 210 255 c 0
 181 255 173 222 173 222 c 1
 173 220 141 100 141 100 c 1
 230 124 212 -5 128 -5 c 0
 75 -5 74 45 81 71 c 2
 119 211 l 1
 127 244 152 255 152 255 c 1
 97 255 l 1
 143 423 433 441 397 269 c 1
 353 106 l 1
 353 106 414 97 428 61 c 1
 504 343 l 1
 545 381 l 1
 553 386 566 390 560 367 c 0
 560 366 470 29 462 0 c 0
286 40 m 0
 297 82 l 0
 266 85 241 46 257 27 c 1
 264 22 281 18 286 40 c 0
133 20 m 0
 174 20 190 79 149 79 c 0
 110 79 94 20 133 20 c 0
EndSplineSet
EndChar
StartChar: uni0E0D
Encoding: 173 3597 141
Width: 521
Flags: HW
HStem: -150 21<297 329.5> -5 21<324 381> 256 28
Fore
470 68 m 1
 470 68 l 0
 461 35 410 -5 352 -5 c 0
 296 -5 265 31 277 73 c 1
 328 265 l 2
 362 394 186 373 139 284 c 1
 250 284 l 1
 242 255 l 1
 235 255 211 255 210 255 c 0
 181 255 173 222 173 222 c 1
 173 220 141 100 141 100 c 1
 243 133 223 -1 137 -5 c 0
 73 -8 74 45 81 71 c 2
 119 211 l 1
 127 244 152 255 152 255 c 1
 97 255 l 1
 147 423 414 440 379 269 c 1
 325 66 l 2
 318 40 331 19 359 19 c 0
 388 19 412 39 419 65 c 2
 494 343 l 1
 535 381 l 1
 543 386 556 390 550 367 c 0
 550 366 470 68 470 68 c 1
433 -70 m 1
 433 -70 l 0
 425 -101 385 -150 307 -150 c 0
 230 -150 236 -91 241 -73 c 0
 247 -55 266 -25 307 -25 c 0
 334 -25 344 -44 337 -70 c 0
 332 -91 308 -110 285 -110 c 0
 274 -110 268 -106 263 -102 c 1
 267 -117 282 -129 312 -129 c 0
 347 -129 379 -99 388 -69 c 1
 397 -34 l 1
 443 -34 l 1
 433 -70 l 1
144 21 m 0
 144 21 l 0
 185 21 200 79 159 79 c 0
 120 79 105 21 144 21 c 0
319 -67 m 0
 328 -35 279 -35 270 -67 c 0
 261 -100 310 -100 319 -67 c 0
EndSplineSet
Substitution: 0 65534 'nds0' uni0E0D.descless
Substitution: 0 65534 'ndsc' uni0E0D.descless
EndChar
StartChar: uni0E0E
Encoding: 174 3598 142
Width: 399
Flags: HMW
AnchorPoint: "BelowBase" 297.991 -160 basechar 0
Fore
299 -157 m 5
 248 -157 l 0
 248 -141 223 -92 183 -72 c 1
 183 -72 148 -138 91 -138 c 0
 53 -138 28 -119 36 -82 c 0
 44 -40 107 -9 170 -36 c 1
 170 -36 188 -2 214 8 c 1
 235 -3 l 1
 204 -22 195 -45 195 -45 c 1
 244 -63 259 -104 259 -104 c 1
 337 265 l 2
 364 391 178 381 129 284 c 1
 241 284 l 1
 235 255 l 1
 204 255 l 2
 173 255 167 222 167 222 c 1
 131 52 l 2
 123 16 95 -5 64 -5 c 0
 -10 -5 15 110 92 106 c 1
 115 216 l 2
 121 246 144 255 144 255 c 1
 89 255 l 1
 132 432 424 434 388 265 c 2
 299 -157 l 5
69 21 m 0
 69 21 l 0
 108 21 121 79 82 79 c 0
 43 79 30 21 69 21 c 0
158 -62 m 1
 142 -56 126 -54 112 -54 c 0
 91 -54 69 -61 65 -82 c 0
 59 -106 82 -110 97 -110 c 0
 128 -110 149 -79 158 -62 c 1
EndSplineSet
EndChar
StartChar: uni0E0F
Encoding: 175 3599 143
Width: 399
Flags: HMW
AnchorPoint: "BelowBase" 297.991 -160 basechar 0
Fore
69 21 m 0
 69 21 l 0
 108 21 121 79 82 79 c 0
 43 79 30 21 69 21 c 0
71 -84 m 0
 71 -84 l 0
 61 -76 49 -72 38 -72 c 0
 5 -72 -5 -88 -7 -100 c 0
 -10 -113 -5 -131 23 -129 c 0
 44 -127 56 -107 71 -84 c 0
89 -58 m 1
 101 -41 117 -26 141 -17 c 1
 157 -35 l 1
 136 -43 121 -58 109 -75 c 1
 123 -89 133 -107 136 -122 c 1
 171 -67 234 -60 260 -101 c 1
 337 265 l 2
 364 391 178 381 129 284 c 1
 241 284 l 1
 235 255 l 1
 204 255 l 2
 173 255 167 222 167 222 c 1
 131 52 l 2
 123 16 95 -5 64 -5 c 0
 -10 -5 14 110 92 106 c 1
 115 216 l 2
 122 248 145 255 145 255 c 1
 89 255 l 1
 132 432 424 434 388 265 c 2
 299 -157 l 5
 251 -157 l 1
 241 -89 175 -89 143 -156 c 1
 113 -156 l 1
 114 -137 104 -117 90 -102 c 1
 72 -128 54 -152 18 -156 c 0
 -33 -161 -40 -121 -35 -101 c 0
 -27 -62 9 -44 44 -44 c 0
 60 -44 75 -49 89 -58 c 1
EndSplineSet
EndChar
StartChar: uni0E10
Encoding: 176 3600 144
Width: 331
Flags: HW
HStem: -152 21 -121 21<179 180> -54 21<166.5 198.5> -5 28<187.5 204.5> 128 21 212 21
Fore
394 372 m 0
 394 372 l 0
 353 300 286 319 276 323 c 0
 192 352 164 349 135 307 c 1
 303 261 l 1
 312 256 333 255 323 216 c 1
 283 69 l 1
 272 27 240 -5 189 -5 c 0
 147 -5 124 29 134 69 c 1
 151 129 l 1
 141 125 133 124 123 124 c 0
 88 124 74 151 84 182 c 0
 95 211 120 233 152 233 c 0
 205 234 221 208 212 176 c 1
 179 51 l 1
 175 38 179 23 196 23 c 0
 213 23 225 38 228 50 c 2
 271 209 l 1
 277 230 275 237 261 241 c 2
 95 286 l 1
 109 311 152 389 224 387 c 0
 268 387 343 343 387 379 c 0
 394 385 399 382 394 372 c 0
227 -142 m 1
 227 -142 l 0
 223 -158 210 -180 183 -180 c 2
 65 -180 l 1
 74 -147 l 1
 78 -129 80 -114 71 -97 c 1
 70 -105 58 -152 11 -152 c 0
 -10 -152 -21 -139 -21 -116 c 0
 -20 -87 13 -53 57 -63 c 1
 57 -63 60 -47 70 -37 c 1
 92 -40 l 1
 78 -53 80 -72 80 -72 c 1
 117 -88 101 -145 101 -145 c 1
 155 -145 l 2
 162 -145 174 -140 177 -131 c 2
 180 -121 l 1
 178 -121 171 -126 158 -125 c 0
 102 -120 129 -29 189 -30 c 0
 229 -30 248 -49 242 -85 c 1
 227 -142 l 1
130 149 m 0
 130 149 l 0
 169 149 185 208 146 208 c 0
 108 208 92 149 130 149 c 0
170 -102 m 0
 170 -102 l 0
 201 -102 214 -54 183 -54 c 0
 150 -54 137 -102 170 -102 c 0
51 -86 m 1
 51 -86 38 -83 28 -83 c 0
 -1 -86 -12 -129 17 -129 c 0
 32 -129 49 -111 51 -86 c 1
EndSplineSet
KernsSLIF: 212 30 1 0 215 30 1 0 214 30 1 0 213 30 1 0
Substitution: 0 65534 'nds0' uni0E10.descless
Substitution: 0 65534 'ndsc' uni0E10.descless
EndChar
StartChar: uni0E11
Encoding: 177 3601 145
Width: 508
Flags: HW
HStem: 0 21<187 236 187 187 388 439 388 388> 182 21<115 152.5> 261 21
Fore
269 300 m 1
 269 300 l 0
 275 322 275 341 261 341 c 1
 202 294 l 1
 168 341 l 1
 148 341 126 314 119 269 c 1
 119 269 132 282 155 282 c 0
 223 282 195 182 127 182 c 0
 70 182 78 254 99 306 c 0
 119 355 152 378 180 386 c 1
 213 335 l 1
 274 385 l 1
 316 382 335 349 321 300 c 1
 271 120 l 1
 380 324 l 1
 424 418 553 402 520 302 c 1
 439 0 l 1
 388 0 l 1
 470 305 l 1
 488 358 424 358 399 314 c 1
 236 0 l 1
 187 0 l 1
 269 300 l 1
133 203 m 0
 172 203 188 260 149 260 c 0
 111 260 97 203 133 203 c 0
EndSplineSet
EndChar
StartChar: uni0E12
Encoding: 178 3602 146
Width: 522
Flags: HW
HStem: -5 21<219.5 283> 98 28 262 21
Fore
212 191 m 0
 212 191 l 0
 257 191 275 257 230 257 c 0
 188 257 170 191 212 191 c 0
275 41 m 0
 290 98 l 0
 264 99 238 47 253 32 c 0
 258 28 272 24 275 41 c 0
334 261 m 2
 348 314 347 335 321 350 c 1
 251 305 l 1
 203 350 l 1
 173 338 138 309 122 250 c 0
 118 234 120 196 126 177 c 0
 141 125 135 114 136 108 c 1
 152 130 218 167 209 167 c 0
 169 167 156 194 164 225 c 0
 166 233 186 282 237 283 c 0
 286 283 308 242 265 184 c 0
 227 134 152 110 132 56 c 1
 117 0 l 1
 66 0 l 1
 82 61 l 2
 104 143 76 194 91 250 c 0
 117 346 181 376 216 387 c 1
 260 341 l 1
 329 387 l 1
 362 379 410 356 384 258 c 2
 349 126 l 1
 349 126 408 103 416 57 c 1
 493 345 l 1
 537 383 l 1
 545 388 557 392 551 369 c 0
 551 368 460 29 452 0 c 1
 400 0 l 1
 405 38 369 85 341 98 c 1
 337 83 330 56 329 53 c 0
 321 21 305 -5 261 -5 c 0
 178 -5 218 124 298 128 c 1
 334 261 l 2
EndSplineSet
EndChar
StartChar: uni0E13
Encoding: 179 3603 147
Width: 521
Flags: HW
HStem: -5 21<412 460.5> 256 28
VStem: 383 24
Fore
484 118 m 0
 484 118 l 0
 481 110 472 104 472 104 c 1
 521 91 495 -5 426 -5 c 0
 398 -5 382 9 383 34 c 1
 381 61 407 86 407 86 c 1
 350 77 314 12 308 0 c 1
 255 0 l 1
 327 267 l 1
 361 395 182 371 139 284 c 1
 250 284 l 1
 242 255 l 1
 235 255 211 255 210 255 c 0
 181 255 172 218 172 218 c 1
 172 216 141 101 141 101 c 1
 242 132 223 -1 137 -5 c 0
 73 -8 74 45 81 71 c 2
 119 212 l 2
 128 245 153 255 153 255 c 1
 97 255 l 1
 146 420 414 442 380 271 c 1
 325 66 l 1
 325 66 366 115 430 110 c 1
 493 345 l 1
 536 383 l 1
 544 388 557 392 551 369 c 0
 551 368 486 126 484 118 c 0
433 21 m 0
 433 21 l 0
 472 21 487 79 448 79 c 0
 408 79 393 21 433 21 c 0
144 21 m 0
 185 21 200 79 159 79 c 0
 120 79 105 21 144 21 c 0
EndSplineSet
KernsSLIF: 212 -30 1 0 215 -30 1 0 214 -30 1 0 213 -30 1 0
EndChar
StartChar: uni0E14
Encoding: 180 3604 148
Width: 397
Flags: HW
HStem: 0 21<74 124 74 74 280 330 280 280> 271 21 361 28
Fore
330 0 m 1
 280 0 l 1
 349 258 l 2
 363 310 348 359 272 359 c 0
 233 359 154 336 131 250 c 0
 118 200 149 159 145 108 c 1
 161 132 234 178 226 178 c 0
 170 177 177 223 180 235 c 0
 183 246 201 291 253 292 c 0
 301 293 323 250 280 193 c 0
 242 143 160 110 139 56 c 1
 124 0 l 1
 74 0 l 1
 90 61 l 2
 112 143 85 194 100 250 c 0
 126 347 220 389 280 389 c 0
 305 389 434 387 399 258 c 1
 330 0 l 1
229 201 m 0
 273 201 290 266 246 266 c 0
 201 266 184 201 229 201 c 0
EndSplineSet
EndChar
StartChar: uni0E15
Encoding: 181 3605 149
Width: 397
Flags: HW
HStem: 0 21<74 124 74 74 280 330 280 280> 262 21
Fore
330 0 m 1
 280 0 l 1
 353 271 l 2
 367 323 356 335 333 350 c 1
 263 305 l 1
 215 350 l 1
 190 344 147 309 131 250 c 0
 127 234 128 196 134 177 c 0
 150 125 146 108 149 113 c 0
 164 132 223 168 215 168 c 0
 163 168 167 212 171 226 c 0
 175 241 195 282 246 283 c 0
 293 283 315 242 272 184 c 0
 235 134 158 102 137 48 c 1
 124 0 l 1
 74 0 l 1
 90 61 l 2
 112 143 85 194 100 250 c 0
 125 343 189 374 228 387 c 1
 272 341 l 1
 341 387 l 1
 373 380 425 353 399 258 c 1
 330 0 l 1
221 191 m 0
 265 191 283 257 239 257 c 0
 195 257 177 191 221 191 c 0
EndSplineSet
EndChar
StartChar: uni0E16
Encoding: 182 3606 150
Width: 392
Flags: HW
HStem: -5 21 256 28
Fore
324 0 m 1
 274 0 l 1
 346 267 l 1
 378 395 187 377 138 284 c 1
 249 284 l 1
 241 255 l 1
 234 255 210 255 209 255 c 0
 180 255 171 218 171 218 c 1
 171 216 140 101 140 101 c 1
 243 132 222 -1 137 -5 c 0
 72 -8 73 45 80 71 c 2
 118 212 l 1
 126 244 151 255 151 255 c 1
 96 255 l 1
 142 423 431 440 397 271 c 1
 324 0 l 1
144 21 m 0
 184 21 199 79 159 79 c 0
 119 79 104 21 144 21 c 0
EndSplineSet
EndChar
StartChar: uni0E17
Encoding: 183 3607 151
Width: 427
Flags: HW
HStem: 0 21<108 155 108 108 309 359 309 309> 275 21 366 21
Fore
359 0 m 1
 309 0 l 1
 391 307 l 1
 408 359 346 360 320 316 c 1
 155 0 l 1
 108 0 l 1
 182 277 l 1
 173 272 162 272 154 272 c 0
 77 272 105 387 189 387 c 0
 267 387 246 327 244 320 c 2
 189 115 l 1
 300 326 l 2
 349 419 474 404 440 304 c 1
 359 0 l 1
159 296 m 0
 203 296 221 362 177 362 c 0
 132 362 114 296 159 296 c 0
EndSplineSet
EndChar
StartChar: uni0E18
Encoding: 184 3608 152
Width: 331
Flags: HW
HStem: 0 28
Fore
271 209 m 1
 277 230 275 237 261 241 c 2
 95 286 l 1
 109 311 152 389 224 387 c 0
 268 387 343 343 387 379 c 0
 394 385 399 382 394 372 c 0
 353 300 286 319 276 323 c 0
 192 352 164 349 135 307 c 1
 303 261 l 1
 312 256 333 255 323 216 c 1
 284 70 l 1
 271 23 241 0 199 0 c 2
 34 0 l 1
 42 29 l 1
 71 29 l 1
 127 237 l 1
 178 237 l 1
 122 29 l 1
 171 29 l 2
 206 29 227 43 235 74 c 2
 271 209 l 1
EndSplineSet
EndChar
StartChar: uni0E19
Encoding: 185 3609 153
Width: 432
Flags: HW
HStem: -5 21<313 361> 85 28 276 21 368 21
VStem: 283 24
Fore
388 121 m 0
 388 121 l 0
 386 112 373 106 373 106 c 1
 424 90 396 -5 326 -5 c 0
 300 -5 285 10 284 35 c 0
 283 63 307 85 307 85 c 1
 220 86 163 10 155 0 c 1
 108 0 l 1
 182 278 l 1
 173 272 162 272 153 272 c 0
 75 270 104 389 188 389 c 0
 267 389 246 328 244 321 c 0
 244 320 171 50 171 50 c 1
 171 50 222 114 335 112 c 1
 398 346 l 1
 440 385 l 1
 447 389 462 394 455 370 c 1
 455 370 390 128 388 121 c 0
159 297 m 0
 159 297 l 0
 203 297 220 363 176 363 c 0
 131 363 114 297 159 297 c 0
334 21 m 0
 375 21 390 79 349 79 c 0
 310 79 295 21 334 21 c 0
EndSplineSet
KernsSLIF: 212 -30 1 0 215 -30 1 0 214 -30 1 0 213 -30 1 0
EndChar
StartChar: uni0E1A
Encoding: 186 3610 154
Width: 423
Flags: HW
HStem: 0 28 276 21 367 21
Fore
373 69 m 0
 373 69 l 0
 369 43 340 0 287 0 c 2
 72 0 l 1
 80 29 l 1
 116 29 l 1
 182 277 l 1
 176 274 162 272 154 272 c 0
 72 272 103 388 189 388 c 0
 267 388 246 328 244 321 c 0
 244 320 166 29 166 29 c 1
 268 29 l 2
 290 29 318 43 325 77 c 1
 397 346 l 1
 440 384 l 1
 448 389 461 393 454 370 c 0
 454 369 374 71 373 69 c 0
159 297 m 0
 203 297 220 363 176 363 c 0
 131 363 114 297 159 297 c 0
EndSplineSet
EndChar
StartChar: uni0E1B
Encoding: 187 3611 155
Width: 433
Flags: HMW
AnchorPoint: "AboveBase" 340.273 420 basechar 0
Fore
380 69 m 0
 380 69 l 0
 376 43 350 0 297 0 c 2
 72 0 l 1
 78 29 l 1
 114 29 l 1
 167 277 l 1
 161 274 147 272 139 272 c 0
 57 272 81 388 167 388 c 0
 245 388 228 328 226 321 c 0
 226 320 164 29 164 29 c 1
 276 29 l 2
 298 29 325 43 330 77 c 1
 440 593 l 1
 481 631 l 1
 489 636 502 640 496 617 c 0
 496 616 380 71 380 69 c 0
142 297 m 0
 186 297 200 363 156 363 c 0
 111 363 97 297 142 297 c 0
EndSplineSet
EndChar
StartChar: uni0E1C
Encoding: 188 3612 156
Width: 423
Flags: HW
HStem: 0 21<60 112 60 60 304 355 304 304> 366 21
Fore
355 0 m 1
 304 0 l 1
 308 14 l 2
 312 28 307 33 306 38 c 1
 263 206 l 1
 129 38 l 1
 126 33 120 29 116 14 c 2
 112 0 l 1
 60 0 l 1
 145 319 l 2
 153 348 182 389 246 387 c 0
 327 384 274 247 188 282 c 1
 132 75 l 1
 278 261 l 1
 325 77 l 1
 396 345 l 1
 440 383 l 1
 448 388 461 392 454 369 c 0
 454 368 355 0 355 0 c 1
223 301 m 0
 265 301 282 364 240 364 c 0
 196 364 179 301 223 301 c 0
EndSplineSet
EndChar
StartChar: uni0E1D
Encoding: 189 3613 157
Width: 433
Flags: HMW
AnchorPoint: "AboveBase" 340.273 420 basechar 0
Fore
365 0 m 1
 314 0 l 1
 316 11 l 2
 319 25 314 30 313 35 c 1
 258 212 l 1
 126 35 l 1
 123 30 118 26 114 11 c 2
 112 0 l 1
 60 0 l 1
 128 319 l 2
 134 348 161 389 224 387 c 0
 306 384 261 247 172 282 c 1
 128 76 l 1
 269 265 l 1
 330 77 l 1
 439 587 l 1
 480 625 l 1
 487 630 500 634 494 609 c 2
 365 0 l 1
206 301 m 0
 248 301 261 364 219 364 c 0
 175 364 162 301 206 301 c 0
EndSplineSet
EndChar
StartChar: uni0E1E
Encoding: 190 3614 158
Width: 471
Flags: HW
HStem: 0 21<109 162 109 109 349 403 349 349> 275 21 366 21
VStem: 346 24
Fore
403 0 m 1
 349 0 l 1
 341 319 l 1
 162 0 l 1
 109 0 l 1
 183 276 l 1
 177 273 163 271 155 271 c 0
 77 271 106 387 190 387 c 0
 268 387 247 327 245 320 c 0
 244 319 179 75 179 75 c 1
 350 383 l 1
 368 383 l 1
 373 75 l 1
 446 348 l 1
 489 386 l 1
 498 391 510 395 503 372 c 0
 502 371 403 0 403 0 c 1
159 296 m 0
 203 296 221 362 177 362 c 0
 132 362 114 296 159 296 c 0
EndSplineSet
EndChar
StartChar: uni0E1F
Encoding: 191 3615 159
Width: 471
Flags: HMW
AnchorPoint: "AboveBase" 378.273 420 basechar 0
Fore
403 0 m 1
 349 0 l 1
 324 319 l 1
 162 0 l 1
 109 0 l 1
 168 276 l 1
 162 273 148 271 140 271 c 0
 62 271 84 387 168 387 c 0
 246 387 229 327 227 320 c 0
 227 319 174 72 174 72 c 1
 329 385 l 1
 347 385 l 1
 368 72 l 1
 478 587 l 1
 519 626 l 2
 524 631 538 635 533 610 c 2
 403 0 l 1
143 296 m 0
 187 296 201 362 157 362 c 0
 112 362 98 296 143 296 c 0
EndSplineSet
EndChar
StartChar: uni0E20
Encoding: 192 3616 160
Width: 403
Flags: HW
HStem: -3 21<42 94> 81 28 256 28
Fore
336 0 m 0
 285 0 l 1
 357 267 l 1
 390 392 199 378 149 284 c 1
 263 284 l 1
 255 255 l 1
 231 255 l 2
 201 255 193 222 193 222 c 1
 148 54 l 1
 139 18 109 -3 79 -3 c 0
 5 -3 35 112 113 108 c 1
 142 216 l 2
 150 247 173 255 173 255 c 1
 107 255 l 1
 154 424 444 440 409 271 c 1
 409 271 342 24 336 0 c 0
86 23 m 0
 125 23 141 81 102 81 c 0
 61 81 45 23 86 23 c 0
EndSplineSet
EndChar
StartChar: uni0E21
Encoding: 193 3617 161
Width: 421
Flags: HW
HStem: -3 21<103 130.5> 275 21 366 21
Fore
353 0 m 0
 301 0 l 0
 274 83 185 96 185 96 c 1
 170 33 158 -3 103 -3 c 0
 10 -4 53 137 144 136 c 1
 182 276 l 1
 175 272 162 271 154 271 c 0
 77 271 105 387 189 387 c 0
 267 387 246 327 244 320 c 0
 243 319 193 132 193 132 c 1
 193 132 275 113 317 52 c 1
 395 345 l 1
 439 384 l 1
 445 388 459 393 452 369 c 0
 452 368 361 29 353 0 c 0
158 296 m 0
 158 296 l 0
 202 296 220 362 176 362 c 0
 131 362 113 296 158 296 c 0
120 44 m 1
 135 102 l 1
 88 109 70 47 90 32 c 1
 96 29 116 25 120 44 c 1
EndSplineSet
EndChar
StartChar: uni0E22
Encoding: 194 3618 162
Width: 378
Flags: HW
HStem: -5 36 200 28 279 21 368 21
VStem: 123 57
Fore
337 100 m 1
 337 100 l 0
 319 34 259 -5 184 -5 c 0
 110 -5 65 34 84 103 c 1
 84 103 96 148 96 149 c 0
 109 187 137 204 161 211 c 1
 139 213 124 233 123 247 c 0
 121 275 128 306 145 332 c 0
 169 369 197 389 242 389 c 0
 316 389 287 277 212 275 c 0
 188 275 180 284 180 284 c 1
 171 253 182 228 215 228 c 2
 234 228 l 1
 227 201 l 1
 209 201 l 2
 181 201 155 180 147 151 c 1
 134 99 l 1
 122 56 147 30 194 30 c 0
 243 30 274 54 285 95 c 0
 286 98 355 353 353 346 c 1
 394 386 l 1
 402 391 417 395 409 370 c 1
 337 100 l 1
218 300 m 0
 263 300 281 366 236 366 c 0
 192 366 174 300 218 300 c 0
EndSplineSet
EndChar
StartChar: uni0E23
Encoding: 195 3619 163
Width: 301
Flags: HW
HStem: -2 21<107 189> 90 21<148.5 193>
Fore
374 375 m 0
 374 375 l 0
 338 305 276 326 275 327 c 0
 194 354 166 353 134 307 c 1
 265 271 l 2
 273 269 294 260 288 239 c 1
 242 66 l 2
 240 58 229 -2 149 -2 c 0
 65 -2 102 115 178 114 c 0
 186 114 196 113 202 106 c 1
 234 224 l 1
 239 237 240 248 225 252 c 2
 97 288 l 1
 110 310 156 387 223 387 c 0
 272 387 326 346 367 383 c 0
 373 388 381 387 374 375 c 0
153 23 m 0
 197 23 215 90 171 90 c 0
 126 90 108 23 153 23 c 0
EndSplineSet
KernsSLIF: 212 30 1 0 215 30 1 0 214 30 1 0 213 30 1 0
EndChar
StartChar: uni0E24
Encoding: 196 3620 164
Width: 389
Flags: HW
HStem: 256 28
Fore
292 -116 m 1
 249 -154 l 0
 240 -159 227 -163 234 -140 c 0
 238 -126 344 267 344 267 c 1
 377 391 191 379 138 284 c 1
 248 284 l 1
 240 255 l 1
 233 255 209 255 208 255 c 0
 179 255 170 217 170 217 c 1
 170 215 140 103 140 103 c 1
 242 133 221 1 135 -3 c 0
 71 -6 73 47 80 73 c 2
 117 211 l 1
 125 243 150 255 150 255 c 1
 96 255 l 1
 147 430 440 436 395 267 c 1
 292 -116 l 1
142 23 m 0
 183 23 199 81 158 81 c 0
 119 81 103 23 142 23 c 0
EndSplineSet
EndChar
StartChar: uni0E25
Encoding: 197 3621 165
Width: 377
Flags: HW
HStem: -3 21 265 28
Fore
310 0 m 1
 260 0 l 1
 310 188 l 1
 322 230 295 261 251 261 c 0
 204 261 167 226 156 188 c 1
 134 103 l 1
 236 134 215 1 130 -3 c 0
 73 -5 67 43 74 70 c 2
 106 191 l 1
 120 242 179 293 246 293 c 0
 307 293 330 257 330 257 c 1
 358 339 294 351 259 351 c 0
 208 351 155 329 116 289 c 1
 102 304 l 1
 234 446 415 392 386 282 c 1
 310 0 l 1
134 21 m 0
 177 21 194 84 151 84 c 0
 108 84 91 21 134 21 c 0
EndSplineSet
EndChar
StartChar: uni0E26
Encoding: 198 3622 166
Width: 398
Flags: HW
HStem: -3 21<25 79.5> 81 28 256 28
Fore
301 -116 m 1
 258 -154 l 0
 249 -159 236 -163 243 -140 c 0
 247 -126 353 267 353 267 c 1
 386 393 195 377 146 284 c 1
 257 284 l 1
 249 255 l 1
 218 255 l 2
 187 255 178 218 178 218 c 1
 134 54 l 1
 125 18 95 -3 64 -3 c 0
 -14 -3 17 112 98 108 c 1
 126 212 l 1
 134 244 159 255 159 255 c 1
 104 255 l 1
 154 429 449 436 404 267 c 1
 301 -116 l 1
71 23 m 0
 110 23 126 81 87 81 c 0
 48 81 32 23 71 23 c 0
EndSplineSet
EndChar
StartChar: uni0E27
Encoding: 199 3623 167
Width: 329
Flags: HW
HStem: -3 21<164 209.5> 85 21<183.5 227> 353 36
Fore
282 77 m 1
 282 77 l 0
 268 27 240 -3 179 -3 c 0
 149 -3 133 21 139 50 c 0
 147 81 174 107 209 108 c 0
 223 108 228 106 237 101 c 1
 286 285 l 1
 298 327 267 355 224 355 c 0
 167 355 126 315 117 306 c 1
 96 312 l 1
 103 327 157 389 245 389 c 0
 307 389 354 346 337 285 c 1
 282 77 l 1
187 20 m 0
 231 20 249 85 205 85 c 0
 162 85 144 20 187 20 c 0
EndSplineSet
EndChar
StartChar: uni0E28
Encoding: 200 3624 168
Width: 384
Flags: HW
HStem: 0 21<66 117 66 66 268 318 268 268> 178 21<198.5 233.5> 268 21 362 28
Fore
220 201 m 0
 220 201 l 0
 264 201 281 265 237 265 c 0
 194 265 177 201 220 201 c 0
342 308 m 0
 342 308 l 0
 336 348 300 360 256 360 c 0
 193 360 137 312 125 269 c 0
 117 240 120 218 137 209 c 1
 154 245 187 289 241 289 c 0
 261 289 274 281 280 270 c 1
 299 278 321 291 342 308 c 0
393 314 m 1
 395 300 394 282 388 261 c 1
 318 0 l 1
 268 0 l 1
 338 261 l 1
 339 266 340 270 341 275 c 1
 322 263 304 254 286 246 c 1
 285 215 256 178 211 178 c 0
 186 178 177 196 177 196 c 1
 167 182 160 160 157 149 c 2
 117 0 l 1
 66 0 l 1
 105 146 l 2
 112 173 77 202 95 269 c 0
 114 338 188 390 265 390 c 0
 314 390 358 380 380 349 c 1
 394 368 405 391 412 417 c 1
 412 417 461 418 461 417 c 0
 451 379 425 344 393 314 c 1
EndSplineSet
EndChar
StartChar: uni0E29
Encoding: 201 3625 169
Width: 433
Flags: HW
HStem: 0 28 224 28 275 21 366 21
Fore
160 296 m 0
 160 296 l 0
 204 296 222 362 178 362 c 0
 133 362 115 296 160 296 c 0
226 166 m 0
 226 166 l 0
 265 166 281 225 242 225 c 0
 202 225 186 166 226 166 c 0
195 138 m 0
 166 29 l 1
 283 29 l 2
 305 29 328 45 334 66 c 1
 358 156 l 1
 325 110 226 84 195 138 c 0
376 224 m 2
 408 345 l 1
 452 384 l 2
 457 388 472 392 464 369 c 0
 464 368 383 68 383 67 c 0
 377 33 348 0 308 0 c 2
 72 0 l 1
 80 29 l 1
 115 29 l 1
 181 277 l 1
 172 272 162 272 154 272 c 0
 77 272 105 387 189 387 c 0
 267 387 246 327 244 320 c 2
 244 320 224 247 224 246 c 1
 232 250 240 252 249 252 c 0
 275 253 297 239 295 214 c 0
 293 167 261 146 238 144 c 1
 293 116 364 178 376 224 c 2
EndSplineSet
EndChar
StartChar: uni0E2A
Encoding: 202 3626 170
Width: 377
Flags: HW
HStem: -3 21
Fore
134 21 m 0
 134 21 l 0
 177 21 194 84 151 84 c 0
 108 84 91 21 134 21 c 0
325 326 m 0
 325 326 l 0
 285 371 171 350 116 289 c 1
 102 304 l 1
 205 416 326 399 367 359 c 1
 384 375 401 395 412 417 c 1
 461 417 l 1
 446 383 416 355 384 332 c 1
 390 314 390 297 385 279 c 2
 310 0 l 1
 260 0 l 1
 304 163 l 1
 315 205 291 246 247 246 c 0
 200 246 163 211 152 173 c 1
 134 103 l 1
 236 134 215 1 130 -3 c 0
 73 -5 67 43 74 70 c 2
 102 176 l 2
 113 218 161 269 224 277 c 1
 255 288 291 304 325 326 c 0
264 276 m 1
 312 266 323 232 323 232 c 1
 325 240 334 272 335 275 c 0
 337 284 338 294 337 303 c 1
 310 290 283 280 264 276 c 1
EndSplineSet
EndChar
StartChar: uni0E2B
Encoding: 203 3627 171
Width: 426
Flags: HW
HStem: 0 21<102 153 102 102 307 358 307 307> 275 21 366 21
Fore
358 0 m 1
 307 0 l 1
 373 245 l 2
 378 264 368 275 368 275 c 1
 280 229 199 124 191 112 c 0
 182 96 175 83 172 71 c 2
 153 0 l 1
 102 0 l 1
 177 281 l 1
 168 273 157 272 147 272 c 0
 72 272 98 387 184 387 c 0
 261 387 240 327 238 320 c 2
 195 159 l 1
 264 247 359 297 359 297 c 1
 338 331 374 387 422 387 c 0
 487 387 466 305 418 287 c 1
 418 287 431 272 425 250 c 2
 358 0 l 1
400 307 m 0
 400 307 l 0
 439 307 455 365 416 365 c 0
 378 365 362 307 400 307 c 0
151 296 m 0
 196 296 214 362 169 362 c 0
 125 362 107 296 151 296 c 0
EndSplineSet
EndChar
StartChar: uni0E2C
Encoding: 204 3628 172
Width: 466
Flags: HW
HStem: 0 21<103 154 103 103 346 398 346 346> 275 21 308 28 366 21 399 21
Fore
570 429 m 1
 570 429 l 0
 547 349 486 327 486 327 c 1
 398 0 l 1
 346 0 l 1
 318 277 l 1
 154 0 l 1
 103 0 l 1
 178 281 l 1
 169 273 156 272 148 272 c 0
 73 272 99 387 185 387 c 0
 262 387 242 327 240 320 c 2
 175 79 l 1
 341 362 l 1
 368 82 l 1
 429 309 l 1
 352 309 381 420 457 420 c 0
 517 420 497 366 497 366 c 1
 523 395 525 416 527 429 c 1
 570 429 l 1
434 336 m 0
 434 336 l 0
 472 336 488 395 450 395 c 0
 411 395 395 336 434 336 c 0
152 296 m 0
 197 296 215 362 170 362 c 0
 126 362 108 296 152 296 c 0
EndSplineSet
EndChar
StartChar: uni0E2D
Encoding: 205 3629 173
Width: 378
Flags: HW
HStem: -5 21<155.5 196> 269 21 359 28
Fore
336 95 m 1
 336 95 l 0
 314 12 214 -5 178 -5 c 0
 133 -5 57 10 80 96 c 2
 111 213 l 2
 118 239 151 293 208 290 c 0
 292 286 241 150 154 182 c 1
 128 86 l 1
 107 3 258 1 282 86 c 1
 332 274 l 2
 343 315 321 357 259 357 c 0
 188 357 152 323 127 302 c 1
 112 316 l 1
 141 343 191 387 270 387 c 0
 356 387 402 338 386 279 c 2
 336 95 l 1
184 201 m 0
 229 201 246 266 201 266 c 0
 156 266 139 201 184 201 c 0
EndSplineSet
EndChar
StartChar: uni0E2E
Encoding: 206 3630 174
Width: 378
Flags: HW
HStem: -5 21<155.5 196> 214 21 360 28<239.5 276.5>
VStem: 128 31
Fore
422 392 m 1
 422 392 l 0
 411 369 400 353 383 336 c 1
 391 322 391 298 386 279 c 2
 336 95 l 1
 314 12 214 -5 178 -5 c 0
 133 -5 57 10 80 96 c 1
 96 158 l 2
 103 184 136 238 193 235 c 0
 277 231 226 95 139 127 c 1
 128 86 l 1
 107 3 258 1 282 86 c 1
 332 274 l 2
 334 281 339 293 337 300 c 1
 254 241 126 250 128 310 c 0
 130 354 207 388 264 388 c 0
 318 388 348 368 356 364 c 1
 362 372 366 380 369 392 c 1
 422 392 l 1
328 331 m 0
 328 331 l 0
 320 346 298 360 255 360 c 0
 224 360 159 345 159 313 c 0
 158 277 269 272 328 331 c 0
169 146 m 0
 214 146 232 211 187 211 c 0
 142 211 124 146 169 146 c 0
EndSplineSet
EndChar
StartChar: uni0E2F
Encoding: 207 3631 175
Width: 351
Flags: HW
HStem: 366 21
Fore
278 2 m 1
 227 2 l 1
 307 303 l 1
 237 253 144 267 122 285 c 0
 83 319 125 387 180 387 c 0
 209 387 225 372 225 347 c 0
 226 320 205 301 205 301 c 1
 297 294 326 372 329 385 c 1
 380 385 l 1
 278 2 l 1
159 303 m 0
 198 303 214 362 175 362 c 0
 135 362 119 303 159 303 c 0
EndSplineSet
EndChar
StartChar: uni0E30
Encoding: 208 3632 176
Width: 300
Flags: HW
HStem: 92 21<92.5 128> 359 21<164.5 199>
Fore
350 377 m 1
 350 377 l 0
 315 290 239 264 174 272 c 1
 174 272 118 276 121 320 c 0
 122 339 141 380 188 380 c 0
 212 380 227 367 226 343 c 0
 224 317 206 300 206 300 c 1
 258 296 294 325 310 377 c 1
 350 377 l 1
278 110 m 1
 278 110 l 0
 243 23 167 -2 102 5 c 1
 102 5 46 9 49 53 c 0
 50 72 69 113 116 113 c 0
 140 113 156 100 154 76 c 0
 152 50 135 33 135 33 c 1
 187 29 223 58 238 110 c 1
 278 110 l 1
167 305 m 0
 167 305 l 0
 203 305 217 359 181 359 c 0
 144 359 130 305 167 305 c 0
95 38 m 0
 131 38 146 92 110 92 c 0
 73 92 58 38 95 38 c 0
EndSplineSet
EndChar
StartChar: uni0E31
Encoding: 209 3633 177
Width: 0
Flags: HMW
HStem: 568 28
AnchorPoint: "AboveMark" 64.9102 630 basemark 0
AnchorPoint: "AboveBase" 20.2734 420 mark 0
Fore
218 593 m 1
 218 593 l 0
 145 428 -45 407 -107 480 c 0
 -151 532 -103 597 -50 596 c 0
 -24 596 -3 583 -2 555 c 0
 0 504 -47 485 -47 485 c 1
 42 450 126 501 160 593 c 1
 218 593 l 1
-68 509 m 0
 -29 509 -16 569 -55 569 c 0
 -96 569 -109 509 -68 509 c 0
EndSplineSet
EndChar
StartChar: uni0E32
Encoding: 210 3634 178
Width: 278
Flags: HW
HStem: 364 28
Fore
213 2 m 1
 161 2 l 1
 240 299 l 1
 250 335 235 363 195 363 c 0
 151 363 112 336 99 325 c 1
 107 353 l 1
 122 366 159 392 210 392 c 0
 278 392 309 363 293 302 c 2
 213 2 l 1
EndSplineSet
EndChar
StartChar: uni0E33
Encoding: 211 3635 179
Width: 278
Flags: HW
HStem: 364 28 446 28<31.5 34 34 34> 542 28
Fore
34 446 m 0
 34 446 l 0
 -49 446 -16 570 67 570 c 0
 149 570 116 446 34 446 c 0
213 2 m 1
 161 2 l 1
 240 299 l 1
 250 335 235 363 195 363 c 0
 151 363 112 336 99 325 c 1
 107 353 l 1
 122 366 159 392 210 392 c 0
 278 392 309 363 293 302 c 2
 213 2 l 1
83 507 m 0
 88 526 77 540 59 540 c 0
 40 540 22 526 17 507 c 0
 12 489 22 474 41 474 c 0
 59 474 78 489 83 507 c 0
EndSplineSet
MultipleSubs: 0 1 'ccmp' uni0E4D uni0E32
EndChar
StartChar: uni0E34
Encoding: 212 3636 180
Width: 0
Flags: HMW
AnchorPoint: "AboveMark" 39.9102 630 basemark 0
AnchorPoint: "AboveBase" 20.2734 420 mark 0
Fore
35 424 m 0
 35 424 l 0
 11 437 -38 464 -102 475 c 0
 -168 487 -211 480 -247 474 c 1
 -216 536 -147 586 -77 581 c 0
 7 575 49 518 35 424 c 0
8 467 m 1
 -4 526 -39 545 -85 549 c 0
 -129 553 -166 534 -190 506 c 1
 -162 509 -131 508 -96 503 c 0
 -40 495 8 467 8 467 c 1
EndSplineSet
EndChar
StartChar: uni0E35
Encoding: 213 3637 181
Width: 0
Flags: HMW
VStem: -120 51
AnchorPoint: "AboveMark" 39.9102 630 basemark 0
AnchorPoint: "AboveBase" 20.2734 420 mark 0
Fore
-0 553 m 0
 14 619 l 1
 63 619 l 5
 63 619 35 490 35 489 c 0
 39 470 38 448 35 424 c 1
 11 437 -38 464 -102 475 c 0
 -168 487 -211 480 -247 474 c 1
 -216 536 -147 586 -77 581 c 0
 -45 579 -19 569 -0 553 c 0
8 467 m 1
 -4 526 -39 545 -85 549 c 0
 -129 553 -166 534 -190 506 c 1
 -162 509 -131 508 -96 503 c 0
 -40 495 8 467 8 467 c 1
EndSplineSet
EndChar
StartChar: uni0E36
Encoding: 214 3638 182
Width: 0
Flags: HMW
AnchorPoint: "AboveMark" 40.9102 630 basemark 0
AnchorPoint: "AboveBase" 20.2734 420 mark 0
Fore
35 424 m 0
 35 424 l 0
 -0 445 -60 470 -110 476 c 1
 -176 487 -219 479 -246 474 c 1
 -219 535 -149 585 -78 582 c 1
 -49 579 -29 569 -29 569 c 1
 -28 581 -10 619 39 619 c 4
 111 619 93 522 30 508 c 1
 30 508 43 476 35 424 c 0
21 534 m 0
 21 534 l 0
 59 534 70 590 32 590 c 0
 -7 590 -18 534 21 534 c 0
8 467 m 1
 -4 526 -39 545 -85 549 c 0
 -129 553 -166 534 -190 506 c 1
 -162 509 -131 508 -96 503 c 0
 -40 495 8 467 8 467 c 1
EndSplineSet
EndChar
StartChar: uni0E37
Encoding: 215 3639 183
Width: 0
Flags: HMW
HStem: 540 79
AnchorPoint: "AboveMark" -1.08984 630 basemark 0
AnchorPoint: "AboveBase" 20.2734 420 mark 0
Fore
36 422 m 0
 36 422 l 0
 -4 445 -53 465 -109 474 c 0
 -165 483 -205 480 -246 472 c 1
 -193 578 -81 570 -81 570 c 1
 -69 619 l 1
 -24 619 l 1
 -36 562 l 1
 -12 555 1 541 1 541 c 1
 19 619 l 1
 63 619 l 5
 35 484 l 1
 35 484 42 465 36 422 c 0
7 465 m 1
 -1 513 -32 536 -87 540 c 0
 -124 543 -164 531 -193 503 c 1
 -165 507 -135 505 -95 500 c 0
 -43 493 7 465 7 465 c 1
EndSplineSet
EndChar
StartChar: uni0E38
Encoding: 216 3640 184
Width: 0
Flags: HMW
AnchorPoint: "BelowBase" -77.5654 -45 mark 0
Fore
-111 -200 m 5
 -162 -200 l 1
 -149 -139 l 1
 -152 -140 -158 -143 -172 -143 c 0
 -237 -142 -218 -50 -152 -45 c 0
 -110 -43 -84 -62 -89 -101 c 1
 -111 -200 l 5
-168 -120 m 0
 -133 -120 -121 -68 -156 -68 c 0
 -191 -68 -203 -120 -168 -120 c 0
EndSplineSet
EndChar
StartChar: uni0E39
Encoding: 217 3641 185
Width: 0
Flags: HMW
AnchorPoint: "BelowBase" -77.5654 -45 mark 0
Fore
-97 -138 m 1
 -97 -138 l 0
 -105 -172 -132 -200 -172 -200 c 0
 -212 -200 -233 -179 -226 -147 c 2
 -223 -131 l 1
 -226 -132 -230 -134 -244 -134 c 0
 -307 -133 -289 -45 -226 -45 c 0
 -187 -45 -176 -69 -184 -102 c 1
 -195 -155 l 1
 -199 -167 -192 -178 -179 -178 c 0
 -165 -178 -155 -170 -152 -155 c 2
 -129 -45 l 1
 -78 -45 l 5
 -97 -138 l 1
-212 -91 m 0
 -209 -76 -218 -66 -231 -66 c 0
 -245 -66 -259 -76 -262 -91 c 0
 -265 -103 -256 -116 -242 -116 c 0
 -229 -116 -215 -103 -212 -91 c 0
EndSplineSet
EndChar
StartChar: uni0E3A
Encoding: 218 3642 186
Width: 0
Flags: HMW
AnchorPoint: "BelowBase" -76.0771 -38 mark 0
Fore
-114 -105 m 0
 -161 -105 -147 -36 -100 -36 c 0
 -56 -36 -71 -105 -114 -105 c 0
EndSplineSet
EndChar
StartChar: uni200B
Encoding: 220 8203 187
Width: 520
Flags: HW
HStem: 0 39<72 396>
DStem: 72 39 100 -31 39 -119 82 -119 427 -34 485 39 409 -119 452 -119
Fore
452 -119 m 1
 409 -119 l 1
 427 -34 l 1
 431 -11 420 0 394 0 c 2
 140 0 l 2
 118 0 105 -10 100 -31 c 1
 82 -119 l 1
 39 -119 l 1
 72 39 l 1
 485 39 l 1
 452 -119 l 1
EndSplineSet
EndChar
StartChar: uni25CC
Encoding: 221 9676 188
Width: 423
Flags: W
HStem: 3 24<224 229> 27 25<131 137> 34 25<314 320> 87 24<79 85> 95 24<380 386> 180 24<422 427> 184 24<75 81> 268 24<417 423> 271 25<124 129> 326 25<368 374> 331 24<202 207> 354 24<297 302>
Fore
122 295 m 6
200 354 m 6
129 51 m 6
77 110 m 6
312 57 m 6
378 118 m 6
415 291 m 6
366 349 m 6
420 203 m 6
74 207 m 6
295 377 m 6
129 296 m 4,11,12
 134.78 296 138.515 291.909 138.515 287.105 c 0,13,14
 138.515 286.091 138.349 285.046 138 284 c 4,15,16
 137 277 131 271 124 271 c 4,17,18
 117.715 271 113.848 275.838 113.848 281.893 c 0,19,20
 113.848 282.581 113.898 283.285 114 284 c 4,21,22
 116 290 122 296 129 296 c 4,11,12
207 355 m 4,23,24
 213.399 355 218.127 350.821 218.127 344.755 c 0,25,26
 218.127 344.186 218.086 343.6 218 343 c 4,27,28
 217 337 209 331 202 331 c 4,29,30
 196.619 331 192.847 335.826 192.847 341.149 c 0,31,32
 192.847 341.762 192.897 342.381 193 343 c 4,33,34
 194 350 201 355 207 355 c 4,23,24
137 52 m 4,35,36
 142.481 52 147.128 46.9925 147.128 41.5522 c 0,37,38
 147.128 41.0374 147.086 40.5187 147 40 c 4,39,40
 145 33 138 27 132 27 c 4,41,42
 126.057 27 121.556 31.3248 121.556 36.9146 c 0,43,44
 121.556 37.9088 121.698 38.943 122 40 c 4,45,46
 123 46 130 52 137 52 c 4,35,36
85 111 m 4,47,48
 90.7802 111 94.5148 107.591 94.5148 102.461 c 0,49,50
 94.5148 101.379 94.3485 100.22 94 99 c 4,51,52
 93 92 86 87 79 87 c 4,53,54
 72.875 87 69.8125 90.8281 69.8125 96.4746 c 0,55,56
 69.8125 97.2812 69.875 98.125 70 99 c 4,57,58
 72 106 78 111 85 111 c 4,47,48
320 59 m 4,59,60
 326.125 59 329.188 54.4062 329.188 48.5684 c 0,61,62
 329.188 47.7344 329.125 46.875 329 46 c 4,63,64
 328 40 321 34 314 34 c 4,65,66
 308.619 34 304.847 38.8256 304.847 44.1491 c 0,67,68
 304.847 44.7617 304.897 45.3808 305 46 c 4,69,70
 306 53 314 59 320 59 c 4,59,60
386 119 m 4,71,72
 392.285 119 396.152 114.969 396.152 109.078 c 0,73,74
 396.152 108.408 396.102 107.715 396 107 c 4,75,76
 394 100 388 95 381 95 c 4,77,78
 375.22 95 371.485 98.4092 371.485 103.539 c 0,79,80
 371.485 104.621 371.651 105.78 372 107 c 4,81,82
 373 114 379 119 386 119 c 4,71,72
423 292 m 4,83,84
 429.285 292 433.152 287.969 433.152 282.078 c 0,85,86
 433.152 281.408 433.102 280.715 433 280 c 4,87,88
 431 273 425 268 418 268 c 4,89,90
 412.22 268 408.485 271.409 408.485 276.539 c 0,91,92
 408.485 277.621 408.651 278.78 409 280 c 4,93,94
 410 287 416 292 423 292 c 4,83,84
374 351 m 4,95,96
 380.285 351 384.152 346.162 384.152 340.107 c 0,97,98
 384.152 339.419 384.102 338.715 384 338 c 4,99,100
 383 332 375 326 368 326 c 4,101,102
 362.619 326 358.847 330.826 358.847 336.149 c 0,103,104
 358.847 336.762 358.897 337.381 359 338 c 4,105,106
 360 345 368 351 374 351 c 4,95,96
427 204 m 4,107,108
 433.4 204 438.127 199.821 438.127 193.755 c 0,109,110
 438.127 193.186 438.086 192.601 438 192 c 4,111,112
 436 185 429 180 422 180 c 4,113,114
 416.917 180 412.552 183.588 412.552 188.941 c 0,115,116
 412.552 189.907 412.694 190.93 413 192 c 4,117,118
 414 199 421 204 427 204 c 4,107,108
81 208 m 4,119,120
 87.2854 208 91.1521 203.969 91.1521 198.078 c 0,121,122
 91.1521 197.408 91.1021 196.715 91 196 c 4,123,124
 89 190 83 184 76 184 c 4,125,126
 70.2198 184 66.4852 188.091 66.4852 192.895 c 0,127,128
 66.4852 193.909 66.6515 194.954 67 196 c 4,129,130
 68 203 74 208 81 208 c 4,119,120
229 27 m 4,131,132
 234.78 27 238.515 23.5908 238.515 18.4614 c 0,133,134
 238.515 17.3789 238.349 16.2198 238 15 c 4,135,136
 237 8 231 3 224 3 c 4,137,138
 218.519 3 213.872 7.17289 213.872 13.2314 c 0,139,140
 213.872 13.8047 213.914 14.3949 214 15 c 4,141,142
 216 22 223 27 229 27 c 4,131,132
302 378 m 4,143,144
 308.285 378 312.152 373.162 312.152 367.831 c 0,145,146
 312.152 367.225 312.102 366.613 312 366 c 4,147,148
 310 359 304 354 297 354 c 4,149,150
 291.917 354 287.552 357.588 287.552 362.941 c 0,151,152
 287.552 363.907 287.694 364.93 288 366 c 4,153,154
 289 372 296 378 302 378 c 4,143,144
EndSplineSet
EndChar
StartChar: uni0E3F
Encoding: 223 3647 189
Width: 490
Flags: HW
HStem: -69 94<202 226 202 202> 239 21 450 21
Fore
465 130 m 0
 465 130 l 0
 443 50 367 7 265 2 c 1
 245 -69 l 1
 202 -69 l 1
 219 1 l 1
 24 2 l 1
 26 13 l 1
 85 13 101 35 107 57 c 2
 203 415 l 1
 209 436 205 459 146 460 c 1
 149 470 l 1
 170 470 343 471 345 471 c 1
 363 535 l 1
 406 535 l 1
 390 469 l 1
 470 461 521 427 501 352 c 0
 486 293 437 263 380 249 c 1
 379 245 l 1
 437 234 483 198 465 130 c 0
431 349 m 0
 431 349 l 0
 444 400 423 429 382 439 c 1
 335 264 l 1
 383 275 418 304 431 349 c 0
289 260 m 1
 338 445 l 0
 297 447 279 444 273 423 c 1
 230 260 l 1
 289 260 l 1
226 25 m 0
 282 234 l 0
 276 234 223 234 223 234 c 1
 177 65 l 2
 170 39 175 25 226 25 c 0
387 132 m 0
 403 190 369 217 325 227 c 1
 272 29 l 1
 326 38 369 65 387 132 c 0
EndSplineSet
MinimumDistance: x30,12 
EndChar
StartChar: uni0E40
Encoding: 224 3648 190
Width: 220
Flags: HW
HStem: -3 21<107 129 129 129> 83 21<132 172.5>
Fore
129 -3 m 0
 129 -3 l 0
 85 -3 72 35 82 71 c 1
 156 348 l 1
 200 386 l 1
 209 391 222 395 215 372 c 0
 214 371 144 107 144 107 c 1
 144 107 153 108 159 108 c 0
 231 108 203 -3 129 -3 c 0
136 23 m 0
 177 23 193 83 152 83 c 0
 112 83 96 23 136 23 c 0
EndSplineSet
EndChar
StartChar: uni0E41
Encoding: 225 3649 191
Width: 397
Flags: HW
HStem: -3 21<107 129 129 129 283 305 305 305> 83 21<132 172.5 308 348.5>
Fore
305 -3 m 0
 305 -3 l 0
 261 -3 248 35 258 71 c 1
 332 348 l 1
 376 386 l 1
 385 391 398 395 391 372 c 0
 390 371 320 107 320 107 c 1
 320 107 329 108 335 108 c 0
 407 108 379 -3 305 -3 c 0
129 -3 m 0
 129 -3 l 0
 85 -3 72 35 82 71 c 1
 156 348 l 1
 200 386 l 1
 209 391 222 395 215 372 c 0
 214 371 144 107 144 107 c 1
 144 107 153 108 159 108 c 0
 231 108 203 -3 129 -3 c 0
312 23 m 0
 312 23 l 0
 353 23 369 83 328 83 c 0
 288 83 272 23 312 23 c 0
136 23 m 0
 177 23 193 83 152 83 c 0
 112 83 96 23 136 23 c 0
EndSplineSet
EndChar
StartChar: uni0E42
Encoding: 226 3650 192
Width: 216
Flags: HMW
HStem: -3 21<122.5 182> 83 21<149 188.5> 547 77
Fore
376 592 m 0
 376 592 l 0
 327 506 269 550 268 550 c 0
 196 595 174 583 152 560 c 1
 243 501 l 2
 253 495 270 484 259 452 c 1
 167 107 l 1
 171 109 174 108 176 108 c 0
 247 108 218 -3 146 -3 c 0
 99 -3 96 33 105 69 c 1
 209 456 l 1
 213 468 216 481 196 493 c 2
 112 544 l 1
 124 561 168 622 219 624 c 0
 264 626 332 563 369 598 c 1
 376 603 381 601 376 592 c 0
153 23 m 0
 192 23 208 83 169 83 c 0
 129 83 113 23 153 23 c 0
EndSplineSet
EndChar
StartChar: uni0E43
Encoding: 227 3651 193
Width: 236
Flags: HW
HStem: -3 21<136.5 159 159 159> 83 21<161.5 202.5> 447 21 519 21 596 28
Fore
159 -3 m 0
 159 -3 l 0
 114 -3 110 33 119 69 c 1
 242 528 l 2
 251 561 241 590 209 591 c 0
 171 591 144 565 132 523 c 1
 145 538 165 540 171 540 c 0
 237 540 210 442 143 442 c 0
 94 442 97 500 109 539 c 1
 127 586 168 624 224 624 c 0
 285 624 308 581 293 526 c 2
 181 107 l 1
 182 107 186 108 189 108 c 0
 260 108 233 -3 159 -3 c 0
164 516 m 0
 164 516 l 0
 148 516 137 506 133 492 c 0
 130 482 133 468 150 468 c 0
 183 468 195 516 164 516 c 0
166 23 m 0
 207 23 223 83 182 83 c 0
 141 83 125 23 166 23 c 0
EndSplineSet
EndChar
StartChar: uni0E44
Encoding: 228 3652 194
Width: 263
Flags: HW
HStem: -3 21<166.5 189 189 189> 83 21<192 233> 429 21 603 21
Fore
189 -3 m 0
 189 -3 l 0
 144 -3 141 33 150 69 c 1
 286 575 l 2
 290 589 285 598 274 598 c 0
 260 598 251 586 248 575 c 2
 221 475 l 2
 214 448 194 426 160 426 c 0
 127 425 114 449 122 478 c 2
 153 592 l 1
 154 598 157 605 150 615 c 0
 144 623 140 624 133 632 c 1
 128 640 139 646 146 640 c 1
 187 626 l 1
 199 618 196 613 194 606 c 2
 158 469 l 2
 155 458 160 450 172 450 c 0
 182 450 192 457 196 469 c 1
 221 564 l 2
 230 597 254 624 294 624 c 0
 333 624 340 595 333 567 c 1
 210 107 l 1
 213 107 217 108 219 108 c 0
 291 108 263 -3 189 -3 c 0
196 23 m 0
 238 23 254 83 212 83 c 0
 172 83 156 23 196 23 c 0
EndSplineSet
EndChar
StartChar: uni0E45
Encoding: 229 3653 195
Width: 198
Flags: HW
HStem: 364 28
Fore
101 -115 m 1
 57 -153 l 1
 49 -158 36 -162 43 -139 c 0
 47 -125 160 299 160 299 c 1
 170 335 155 363 115 363 c 0
 71 363 32 336 19 325 c 1
 27 353 l 1
 42 366 79 392 130 392 c 0
 198 392 229 363 213 302 c 1
 101 -115 l 1
EndSplineSet
EndChar
StartChar: uni0E46
Encoding: 230 3654 196
Width: 458
Flags: HW
HStem: 171 21<253 291> 250 21
Fore
355 -115 m 1
 313 -153 l 0
 305 -158 292 -162 299 -139 c 0
 303 -125 417 302 417 302 c 2
 424 328 417 337 403 341 c 1
 343 296 l 1
 337 305 308 341 308 341 c 1
 274 325 255 279 254 260 c 1
 254 260 275 271 294 271 c 0
 360 269 333 171 267 171 c 0
 210 171 210 228 223 276 c 0
 233 312 270 368 321 389 c 1
 356 344 l 1
 416 390 l 1
 476 389 478 343 467 302 c 2
 355 -115 l 1
272 192 m 0
 310 192 326 249 288 249 c 0
 250 249 234 192 272 192 c 0
EndSplineSet
EndChar
StartChar: uni0E47
Encoding: 231 3655 197
Width: 0
Flags: HW
HStem: 493 36
VStem: -100 51<669 669>
AnchorPoint: "AboveMark" -99.7266 420 mark 0
AnchorPoint: "AboveBase" 4.27344 420 mark 0
Fore
93 669 m 1
 93 669 l 0
 78 598 24 565 -72 581 c 0
 -118 589 -146 588 -163 545 c 0
 -171 525 -170 503 -166 496 c 1
 -166 496 -157 530 -118 530 c 0
 -78 530 -75 490 -58 481 c 1
 -58 481 -59 487 -58 492 c 0
 -44 561 59 560 44 490 c 0
 36 453 3 434 -20 435 c 0
 -96 437 -87 494 -124 493 c 0
 -155 492 -163 446 -156 435 c 1
 -182 435 l 1
 -206 459 -220 511 -195 563 c 0
 -181 593 -151 627 -55 614 c 0
 3 606 33 609 42 669 c 1
 93 669 l 1
19 490 m 0
 27 527 -28 527 -36 490 c 0
 -43 455 12 455 19 490 c 0
EndSplineSet
EndChar
StartChar: uni0E48
Encoding: 232 3656 198
Width: 0
Flags: HW
HStem: 657 131<-108 -73 -108 -108>
VStem: -112 42
AnchorPoint: "AboveMark" 42.9102 630 mark 0
Fore
102 788 m 5
 67 657 l 1
 32 657 l 1
 51 788 l 1
 102 788 l 5
EndSplineSet
Substitution: 0 65534 'loww' uni0E48.low
Substitution: 0 65534 'amni' uni0E4D
EndChar
StartChar: uni0E49
Encoding: 233 3657 199
Width: 0
Flags: HW
AnchorPoint: "AboveMark" 97.9102 630 mark 0
Fore
255 790 m 1
 255 790 l 0
 217 677 90 619 -23 637 c 1
 -19 656 l 1
 -12 658 16 672 30 694 c 1
 30 694 l 1
 30 694 25 692 19 692 c 0
 -51 692 -28 793 41 793 c 0
 90 793 82 744 82 744 c 1
 71 691 35 665 35 665 c 1
 32 662 l 1
 94 667 182 708 203 790 c 1
 255 790 l 1
24 716 m 0
 60 716 72 771 36 771 c 0
 -3 771 -15 716 24 716 c 0
EndSplineSet
Substitution: 0 65534 'loww' uni0E49.low
Substitution: 0 65534 'amni' uni0E4D
EndChar
StartChar: uni0E4A
Encoding: 234 3658 200
Width: 0
Flags: HW
HStem: 762 36
VStem: -184 32 -95 20<677 700.5>
AnchorPoint: "AboveMark" 63.9102 630 mark 0
Fore
249 800 m 1
 249 800 l 0
 235 710 174 657 92 646 c 5
 96 662 l 1
 136 684 147 754 116 763 c 1
 74 738 l 1
 44 763 l 1
 20 763 -4 735 -5 710 c 1
 -5 710 5 731 37 731 c 0
 62 731 76 711 72 690 c 0
 66 664 47 644 19 644 c 0
 -22 644 -40 679 -30 726 c 0
 -23 759 18 798 52 798 c 1
 52 798 80 768 81 768 c 2
 122 797 l 1
 193 778 166 712 146 684 c 1
 189 709 208 753 207 800 c 1
 249 800 l 1
51 687 m 0
 58 720 9 720 2 687 c 0
 -5 655 44 655 51 687 c 0
EndSplineSet
Substitution: 0 65534 'loww' uni0E4A.low
Substitution: 0 65534 'amni' uni0E4D
EndChar
StartChar: uni0E4B
Encoding: 235 3659 201
Width: 0
Flags: HW
AnchorPoint: "AboveMark" 38.9102 630 mark 0
Fore
144 704 m 5
 75 703 l 1
 62 646 l 1
 25 646 l 1
 36 703 l 1
 -33 704 l 1
 -25 741 l 1
 44 742 l 1
 55 800 l 1
 98 800 l 1
 85 742 l 1
 152 741 l 1
 144 704 l 5
EndSplineSet
Substitution: 0 65534 'loww' uni0E4B.low
Substitution: 0 65534 'amni' uni0E4D
EndChar
StartChar: uni0E4C
Encoding: 236 3660 202
Width: 0
Flags: HW
HStem: 587 20
AnchorPoint: "AboveMark" 12.2832 580 mark 0
Fore
188 744 m 1
 188 744 l 0
 152 679 51 678 56 676 c 0
 95 657 68 587 15 587 c 4
 -17 587 -32 607 -26 635 c 0
 -18 674 19 696 67 704 c 0
 84 707 143 728 152 763 c 1
 188 744 l 1
18 606 m 0
 55 606 66 660 29 660 c 0
 -7 660 -18 606 18 606 c 0
EndSplineSet
Substitution: 0 65534 'loww' uni0E4C.low
EndChar
StartChar: uni0E4D
Encoding: 237 3661 203
Width: 0
Flags: HW
AnchorPoint: "AboveMark" -2.72656 420 mark 0
AnchorPoint: "AboveMark" 41.9102 630 basemark 0
AnchorPoint: "AboveBase" 20.2734 420 mark 0
Fore
0 435 m 0
 0 435 l 0
 -83 435 -56 559 27 559 c 0
 109 559 82 435 0 435 c 0
46 496 m 0
 50 515 38 529 20 529 c 0
 1 529 -16 515 -20 496 c 0
 -23 478 -13 463 6 463 c 0
 24 463 43 478 46 496 c 0
EndSplineSet
Substitution: 0 65534 'G006' uni0E4B
Substitution: 0 65534 'G005' uni0E4A
Substitution: 0 65534 'G004' uni0E49
Substitution: 0 65534 'G003' uni0E48
EndChar
StartChar: uni0E4E
Encoding: 238 3662 204
Width: 0
Flags: HW
AnchorPoint: "AboveBase" 20.2734 420 mark 0
Fore
179 563 m 2
 131 601 92 561 100 531 c 1
 100 531 101 524 99 521 c 0
 92 513 68 494 58 496 c 0
 56 496 54 498 54 498 c 1
 21 541 -41 498 -20 453 c 1
 -20 453 -15 446 -20 443 c 0
 -27 439 -47 426 -54 424 c 0
 -58 423 -61 428 -61 428 c 1
 -105 496 10 588 69 525 c 1
 70 526 l 1
 54 591 152 638 202 586 c 1
 202 586 203 584 201 581 c 0
 198 574 189 561 181 562 c 0
 180 562 179 563 179 563 c 2
EndSplineSet
EndChar
StartChar: uni0E4F
Encoding: 239 3663 205
Width: 480
Flags: HW
HStem: -1 36 107 28<261.5 290.5> 251 28 351 36<290 377.5>
Fore
516 193 m 0
 516 193 l 0
 482 66 345 -1 240 -1 c 0
 132 -1 33 66 67 193 c 0
 101 320 236 387 344 387 c 0
 449 387 550 320 516 193 c 0
450 193 m 0
 450 193 l 0
 473 280 421 351 334 351 c 0
 245 351 156 280 133 193 c 0
 109 106 160 34 249 34 c 0
 336 34 426 106 450 193 c 0
379 193 m 0
 379 193 l 0
 365 142 315 107 269 107 c 0
 220 107 190 142 204 193 c 0
 218 245 266 279 315 279 c 0
 361 279 393 245 379 193 c 0
333 193 m 0
 340 222 336 249 307 249 c 0
 278 249 258 222 251 193 c 0
 243 164 247 135 276 135 c 0
 305 135 325 164 333 193 c 0
EndSplineSet
EndChar
StartChar: uni0E50
Encoding: 240 3664 206
Width: 420
Flags: HW
HStem: -5 28 281 28
Fore
423 151 m 0
 423 151 l 0
 399 60 304 -5 209 -5 c 0
 111 -5 50 58 75 152 c 0
 99 243 195 309 293 309 c 0
 388 309 448 243 423 151 c 0
372 152 m 0
 390 219 356 280 285 280 c 0
 212 280 145 222 126 151 c 0
 108 82 146 24 216 24 c 0
 286 24 354 86 372 152 c 0
EndSplineSet
EndChar
StartChar: uni0E51
Encoding: 241 3665 207
Width: 420
Flags: HW
HStem: 281 28
Fore
427 151 m 0
 427 151 l 0
 405 68 338 0 255 -19 c 1
 236 -9 l 1
 328 21 360 95 376 152 c 0
 397 230 352 280 283 280 c 0
 214 280 146 229 125 151 c 0
 86 5 219 0 249 75 c 1
 249 75 239 62 213 62 c 0
 179 62 165 89 173 118 c 0
 181 150 211 175 246 175 c 0
 292 175 304 139 294 99 c 0
 254 -48 22 -42 73 151 c 0
 100 251 198 309 291 309 c 0
 382 309 454 250 427 151 c 0
257 119 m 0
 267 155 213 155 203 119 c 0
 193 83 247 83 257 119 c 0
EndSplineSet
EndChar
StartChar: uni0E52
Encoding: 242 3666 208
Width: 420
Flags: HW
HStem: 0 28
VStem: 152 48
Fore
431 151 m 0
 431 151 l 0
 422 117 416 95 404 68 c 0
 387 30 371 0 307 0 c 2
 126 0 l 2
 60 0 40 35 53 82 c 1
 127 359 l 2
 143 419 139 432 139 432 c 1
 139 458 156 453 164 447 c 1
 181 417 l 1
 181 417 189 405 176 359 c 1
 102 81 l 2
 93 48 111 29 137 29 c 2
 311 29 l 2
 337 29 348 46 356 62 c 1
 374 108 371 104 384 152 c 0
 398 207 409 262 382 268 c 0
 362 272 331 228 320 203 c 0
 310 179 283 176 286 204 c 0
 288 229 281 272 259 268 c 0
 234 263 206 213 201 153 c 1
 201 153 212 165 233 165 c 0
 307 163 274 54 203 54 c 0
 160 54 150 85 152 120 c 0
 159 230 213 309 266 307 c 0
 306 306 314 261 311 237 c 1
 314 237 l 1
 324 261 357 306 397 307 c 0
 456 308 452 229 431 151 c 0
244 108 m 0
 254 145 199 145 189 108 c 0
 180 73 235 73 244 108 c 0
EndSplineSet
EndChar
StartChar: uni0E53
Encoding: 243 3667 209
Width: 420
Flags: HW
HStem: -5 21<106 141.5> 272 36
Fore
350 268 m 0
 350 268 l 0
 317 264 284 206 271 155 c 0
 268 145 266 139 263 128 c 0
 257 104 225 105 231 128 c 0
 234 138 236 145 238 154 c 0
 256 221 241 268 210 268 c 0
 179 268 124 229 113 89 c 1
 113 89 130 106 154 106 c 0
 187 106 202 80 194 50 c 0
 186 20 158 -5 125 -5 c 0
 87 -5 67 21 64 56 c 0
 56 146 102 308 220 308 c 0
 272 308 276 241 276 241 c 1
 277 241 l 1
 307 293 338 308 370 308 c 0
 476 308 455 165 368 7 c 1
 338 0 l 2
 329 -1 314 -5 324 16 c 0
 411 186 404 274 350 268 c 0
166 49 m 0
 176 86 121 86 111 49 c 0
 101 13 156 13 166 49 c 0
EndSplineSet
EndChar
StartChar: uni0E54
Encoding: 244 3668 210
Width: 420
Flags: HW
HStem: 1 28 277 28 428 21
Fore
312 167 m 0
 312 167 l 0
 321 203 266 203 257 167 c 0
 247 130 302 130 312 167 c 0
373 30 m 0
 377 30 389 32 393 32 c 0
 407 32 395 19 395 19 c 1
 379 0 l 1
 379 0 321 0 264 2 c 0
 237 3 215 -1 187 -3 c 0
 111 -7 50 51 78 158 c 0
 105 259 193 307 272 307 c 0
 297 307 303 305 321 305 c 0
 382 305 441 349 467 449 c 1
 509 436 l 2
 513 435 516 432 512 423 c 0
 484 338 412 274 316 274 c 0
 304 274 284 276 272 276 c 0
 194 276 146 214 130 158 c 0
 111 87 124 23 211 29 c 0
 220 30 226 31 236 31 c 0
 250 31 266 29 266 29 c 1
 228 45 192 91 209 153 c 0
 222 201 267 227 303 224 c 0
 335 221 349 198 340 164 c 0
 328 121 271 95 244 120 c 1
 237 95 297 24 373 30 c 0
EndSplineSet
EndChar
StartChar: uni0E55
Encoding: 245 3669 211
Width: 420
Flags: HW
HStem: 1 28 428 21
Fore
312 167 m 0
 312 167 l 0
 321 203 266 203 257 167 c 0
 247 130 302 130 312 167 c 0
350 330 m 0
 350 330 l 0
 364 382 287 382 273 330 c 0
 270 318 272 311 275 306 c 1
 289 304 320 304 336 307 c 1
 343 313 348 320 350 330 c 0
466 449 m 1
 509 436 l 2
 513 435 516 432 512 423 c 0
 483 335 408 275 321 274 c 0
 308 274 284 275 272 275 c 0
 194 275 146 214 130 158 c 0
 111 87 124 23 211 29 c 0
 220 30 226 31 236 31 c 0
 250 31 267 28 267 28 c 1
 230 44 192 91 209 153 c 0
 222 201 267 227 303 224 c 0
 335 221 349 198 340 164 c 0
 328 121 271 95 244 120 c 1
 237 95 297 24 373 30 c 0
 377 30 389 32 393 32 c 0
 407 32 395 19 395 19 c 1
 379 0 l 1
 379 0 321 0 264 2 c 0
 237 3 215 -1 187 -3 c 0
 111 -7 50 51 78 158 c 0
 104 254 183 297 244 305 c 1
 242 312 241 320 243 329 c 0
 254 371 292 398 331 398 c 0
 372 398 392 370 381 329 c 0
 380 323 377 319 374 316 c 1
 400 331 444 360 466 449 c 1
EndSplineSet
EndChar
StartChar: uni0E56
Encoding: 246 3670 212
Width: 420
Flags: HW
HStem: -5 28 281 28
Fore
282 309 m 0
 282 309 l 0
 384 309 445 248 419 150 c 0
 395 61 319 -5 201 -5 c 0
 13 -5 68 182 174 182 c 0
 208 182 223 155 214 124 c 0
 206 95 180 68 144 68 c 0
 126 68 121 78 121 78 c 1
 119 47 161 24 208 24 c 0
 280 24 348 77 367 150 c 0
 388 227 344 280 274 280 c 0
 246 280 205 273 173 256 c 0
 164 251 143 256 152 283 c 1
 171 354 168 397 153 439 c 0
 152 443 152 450 161 450 c 2
 211 450 l 1
 217 432 222 367 198 295 c 1
 220 305 254 309 282 309 c 0
186 125 m 0
 196 161 141 161 131 125 c 0
 122 88 177 88 186 125 c 0
EndSplineSet
EndChar
StartChar: uni0E57
Encoding: 247 3671 213
Width: 420
Flags: HW
HStem: -5 21<91.5 129.5> 271 36
VStem: 52 48
Fore
499 437 m 0
 499 437 l 0
 511 280 411 28 299 -1 c 1
 299 -1 254 -12 266 14 c 2
 266 14 290 63 304 95 c 0
 364 231 342 272 317 272 c 0
 290 272 265 238 253 212 c 0
 248 203 243 187 241 179 c 0
 232 156 207 155 210 179 c 1
 213 189 215 204 215 213 c 0
 218 241 209 272 185 272 c 0
 163 272 112 239 99 90 c 1
 99 90 117 106 142 106 c 0
 174 106 190 81 182 51 c 0
 174 21 146 -5 113 -5 c 0
 70 -5 53 25 52 61 c 0
 50 183 102 303 195 307 c 0
 223 308 243 278 239 236 c 1
 242 236 l 1
 258 278 300 308 326 307 c 0
 410 303 405 185 309 34 c 1
 309 34 335 44 353 71 c 0
 416 162 464 299 447 417 c 1
 479 447 l 1
 488 457 498 462 499 437 c 0
152 49 m 0
 162 86 108 86 98 49 c 0
 88 13 142 13 152 49 c 0
EndSplineSet
EndChar
StartChar: uni0E58
Encoding: 248 3672 214
Width: 420
Flags: HW
HStem: -4 21 188 28 274 28 428 21
Fore
431 156 m 0
 431 156 l 0
 409 46 343 -2 295 -2 c 0
 260 -2 198 4 212 99 c 1
 192 87 165 31 152 -4 c 1
 110 -5 38 45 69 158 c 0
 97 259 183 308 262 308 c 0
 281 308 304 305 319 305 c 0
 375 305 434 353 457 449 c 1
 500 435 l 2
 504 434 507 431 504 422 c 0
 475 338 398 274 321 274 c 0
 302 274 287 276 271 276 c 0
 189 276 138 220 121 157 c 0
 107 104 110 62 139 40 c 1
 139 40 172 125 224 143 c 1
 251 139 l 1
 214 1 341 0 372 108 c 1
 319 93 301 130 309 160 c 0
 319 197 351 219 384 219 c 0
 431 219 437 185 431 156 c 0
395 161 m 0
 399 177 390 188 375 188 c 0
 359 188 345 177 341 161 c 0
 337 145 345 134 361 134 c 0
 376 134 391 145 395 161 c 0
EndSplineSet
EndChar
StartChar: uni0E59
Encoding: 249 3673 215
Width: 420
Flags: HW
HStem: -6 28 75 28 228 36 268 36 426 21
Fore
196 48 m 0
 196 48 l 0
 200 63 190 75 176 75 c 0
 161 75 146 63 142 48 c 0
 138 33 147 21 162 21 c 0
 176 21 192 33 196 48 c 0
299 236 m 1
 301 232 308 213 310 207 c 0
 338 124 354 26 354 26 c 1
 362 -5 311 -19 303 13 c 1
 303 13 283 116 264 179 c 0
 240 254 209 286 162 259 c 0
 120 235 108 133 137 81 c 1
 137 81 155 104 185 104 c 0
 217 104 232 80 224 48 c 0
 216 20 185 -6 154 -6 c 0
 128 -6 107 7 92 33 c 0
 49 109 67 240 149 288 c 0
 169 300 238 323 278 265 c 1
 284 286 310 304 332 304 c 0
 382 305 371 264 400 264 c 0
 432 264 463 326 476 447 c 1
 525 432 l 1
 530 432 530 429 528 423 c 0
 500 292 452 225 392 225 c 0
 347 225 354 268 329 269 c 0
 311 270 301 253 299 236 c 1
EndSplineSet
EndChar
StartChar: uni0E5A
Encoding: 250 3674 216
Width: 476
Flags: HW
HStem: 0 21<226 277 226 226 351 351 351 402> 366 21
Fore
277 0 m 1
 226 0 l 1
 307 303 l 1
 238 249 144 267 122 285 c 0
 83 319 125 387 180 387 c 0
 209 387 225 372 225 347 c 0
 226 320 205 301 205 301 c 1
 297 294 326 372 329 385 c 1
 380 385 l 1
 277 0 l 1
159 303 m 0
 159 303 l 0
 198 303 214 362 175 362 c 0
 135 362 119 303 159 303 c 0
454 385 m 1
 505 385 l 1
 402 0 l 1
 351 0 l 1
 454 385 l 1
EndSplineSet
EndChar
StartChar: uni0E5B
Encoding: 251 3675 217
Width: 960
Flags: HW
HStem: 102 28 137 28 182 21<266 272.5> 214 21
Fore
1001 218 m 1
 934 216 l 0
 924 216 919 215 914 205 c 0
 897 169 854 170 860 210 c 0
 864 233 841 226 841 212 c 0
 841 171 809 133 762 125 c 0
 758 124 744 124 748 132 c 0
 774 183 788 245 763 283 c 1
 761 283 l 1
 772 246 743 142 674 111 c 1
 674 111 658 102 644 102 c 0
 634 102 642 114 642 114 c 1
 669 181 680 278 652 308 c 1
 650 308 l 1
 661 254 628 122 525 80 c 1
 525 80 513 76 509 75 c 0
 502 73 495 79 498 85 c 0
 514 122 549 272 506 345 c 1
 504 345 l 1
 515 303 506 238 485 191 c 0
 464 142 391 43 263 32 c 0
 148 22 64 101 96 220 c 0
 132 356 241 415 328 403 c 0
 406 392 437 341 414 255 c 0
 400 201 342 137 277 137 c 0
 228 137 199 171 214 226 c 0
 222 257 250 278 280 278 c 0
 309 278 326 258 318 227 c 0
 309 194 279 182 266 182 c 2
 255 183 l 1
 257 172 263 164 285 164 c 0
 313 164 351 197 366 254 c 0
 380 305 379 364 319 373 c 0
 256 382 182 317 156 219 c 0
 130 125 184 45 270 59 c 0
 408 81 478 266 474 365 c 0
 473 382 493 386 502 382 c 0
 520 374 525 367 529 363 c 0
 594 302 579 203 531 109 c 1
 534 109 l 1
 577 140 621 248 627 328 c 1
 627 328 629 346 646 340 c 0
 656 337 665 331 665 331 c 2
 738 292 697 185 668 129 c 1
 670 129 l 1
 708 162 737 256 743 302 c 1
 743 302 743 316 759 311 c 0
 769 308 773 303 773 303 c 2
 829 271 814 206 775 146 c 1
 777 146 l 2
 794 154 812 184 821 214 c 0
 833 255 888 255 881 215 c 0
 877 195 892 195 900 214 c 0
 911 237 921 236 940 235 c 2
 1005 233 l 1
 1001 218 l 1
284 227 m 0
 287 240 291 261 276 261 c 0
 262 261 252 242 248 227 c 0
 244 212 246 199 258 199 c 0
 270 199 280 211 284 227 c 0
EndSplineSet
EndChar
StartChar: uni0E38.low
Encoding: 252 63256 218
Width: 0
Flags: HW
HStem: -247 21 -181 21
Fore
-140 -320 m 1
 -185 -320 l 1
 -166 -242 l 1
 -168 -242 -175 -246 -185 -246 c 0
 -242 -244 -221 -163 -162 -160 c 0
 -125 -158 -106 -172 -110 -210 c 1
 -140 -320 l 1
-180 -226 m 0
 -149 -226 -136 -179 -167 -179 c 0
 -198 -179 -211 -226 -180 -226 c 0
EndSplineSet
EndChar
StartChar: uni0E39.low
Encoding: 253 63257 219
Width: 0
Flags: HW
HStem: -321 21<-211.5 -176.5> -243 21 -181 21
Fore
-125 -266 m 1
 -125 -266 l 0
 -136 -296 -159 -321 -194 -321 c 0
 -229 -321 -245 -302 -237 -274 c 1
 -229 -235 l 1
 -232 -236 -237 -239 -248 -239 c 0
 -304 -238 -283 -160 -227 -160 c 0
 -193 -160 -185 -181 -194 -210 c 1
 -213 -281 l 1
 -218 -292 -211 -302 -199 -302 c 0
 -187 -302 -178 -292 -174 -281 c 1
 -143 -163 l 1
 -98 -163 l 1
 -125 -266 l 1
-218 -200 m 0
 -214 -187 -222 -178 -234 -178 c 0
 -246 -178 -259 -187 -263 -200 c 0
 -266 -211 -257 -222 -245 -222 c 0
 -233 -222 -221 -211 -218 -200 c 0
EndSplineSet
EndChar
StartChar: uni0E3A.low
Encoding: 254 63258 220
Width: 0
Flags: HW
HStem: -207 58
Fore
-136 -207 m 0
 -172 -207 -158 -152 -122 -152 c 0
 -86 -152 -100 -207 -136 -207 c 0
EndSplineSet
EndChar
StartChar: multiply
Encoding: 256 215 222
Width: 403
Flags: HW
Fore
362 75 m 1
 324 44 l 1
 243 155 l 1
 102 45 l 1
 79 76 l 1
 220 186 l 1
 140 297 l 1
 178 327 l 1
 259 217 l 1
 399 327 l 1
 421 297 l 1
 282 186 l 1
 362 75 l 1
EndSplineSet
EndChar
StartChar: divide
Encoding: 257 247 223
Width: 356
Flags: HW
HStem: 9 67 146 36 254 67
Fore
289 286 m 0
 289 286 l 0
 283 266 265 252 246 252 c 0
 227 252 216 269 221 286 c 0
 226 305 244 321 264 321 c 0
 283 321 294 307 289 286 c 0
374 146 m 1
 60 146 l 1
 70 183 l 1
 384 183 l 1
 374 146 l 1
224 43 m 0
 218 22 199 9 180 9 c 0
 161 9 150 24 156 43 c 0
 160 60 179 77 199 77 c 0
 218 77 229 62 224 43 c 0
EndSplineSet
EndChar
StartChar: registered
Encoding: 258 174 224
Width: 479
Flags: HW
HStem: -7 28 100 13 203 13 316 13 397 28
Fore
507 210 m 0
 507 210 l 0
 475 90 355 -7 239 -7 c 0
 121 -7 53 90 85 210 c 0
 117 328 237 425 355 425 c 0
 471 425 539 328 507 210 c 0
477 210 m 0
 477 210 l 0
 504 310 446 398 348 398 c 0
 248 398 142 310 115 210 c 0
 88 107 146 20 246 20 c 0
 344 20 450 107 477 210 c 0
379 100 m 1
 339 100 l 0
 321 100 319 126 314 150 c 0
 302 199 312 206 265 205 c 1
 245 129 l 2
 241 114 240 110 256 110 c 2
 265 109 l 1
 263 100 l 1
 171 100 l 1
 173 109 l 1
 179 109 l 2
 195 110 200 110 205 128 c 2
 252 301 l 1
 256 318 255 320 237 320 c 2
 231 320 l 1
 233 329 l 1
 336 329 l 2
 387 329 409 313 399 275 c 0
 389 240 358 219 324 214 c 1
 323 210 l 1
 347 205 351 178 355 157 c 0
 361 134 359 110 381 109 c 1
 379 100 l 1
358 270 m 0
 367 304 353 320 320 320 c 2
 306 319 l 2
 294 319 291 304 289 294 c 1
 268 218 l 1
 281 216 l 1
 316 216 347 227 358 270 c 0
EndSplineSet
EndChar
